<?xml version="1.0" encoding="utf-8"?>
<!-- Generator: Adobe Illustrator 25.0.1, SVG Export Plug-In . SVG Version: 6.00 Build 0)  -->
<svg version="1.1" id="Слой_1" xmlns="http://www.w3.org/2000/svg" xmlns:xlink="http://www.w3.org/1999/xlink" x="0px" y="0px"
	 viewBox="0 0 512 512" style="enable-background:new 0 0 512 512;" xml:space="preserve">
<style type="text/css">
	.st0{fill:#5160A4;}
</style>
<g id="Слой_2_1_">
	<g id="Capa_1">
		<path class="st0" d="M497.4,70c-7.5-7.5-19.8-7.5-27.3,0L238.6,300.9l-83.5-90.7c-7.4-7.7-19.6-7.9-27.3-0.5
			c-7.5,7.2-7.9,18.9-1.1,26.7l97.1,105.5c3.6,3.9,8.5,6.1,13.8,6.2h0.4c5.1,0,10-2,13.6-5.6L497.3,97.3
			C504.9,89.8,504.9,77.6,497.4,70C497.4,70,497.4,70,497.4,70z"/>
		<path class="st0" d="M492.7,236.7c-10.7,0-19.3,8.6-19.3,19.3c0,119.9-97.5,217.4-217.4,217.4S38.6,375.9,38.6,256
			S136.1,38.6,256,38.6c10.7,0.2,19.5-8.2,19.7-18.9S267.5,0.2,256.9,0c-0.3,0-0.6,0-0.9,0C114.8,0,0,114.8,0,256s114.8,256,256,256
			s256-114.9,256-256C512,245.3,503.4,236.7,492.7,236.7z"/>
	</g>
</g>
</svg>
