<svg xmlns="http://www.w3.org/2000/svg" viewBox="0 0 612 571.06"><title>comercial</title><g id="Слой_2" data-name="Слой 2"><g id="Capa_1" data-name="Capa 1"><path d="M599.29,96.48l-66.9-83.93A33.31,33.31,0,0,0,506.34,0H160.55A33.31,33.31,0,0,0,134.5,12.55L67.6,96.48c-7,8.77-12.71,25.12-12.71,37.46v61.49a43.16,43.16,0,0,1,22.4-17.85A46.69,46.69,0,0,1,112.08,136a47.7,47.7,0,0,1,12.25-1.64,46.69,46.69,0,0,1,38.88,20.87,44.32,44.32,0,0,1,7.62-.67,43.33,43.33,0,0,1,21.69,5.87l37-9.64a56.29,56.29,0,0,1,68.69,40.34l72.63,279.13A56.34,56.34,0,0,1,330.55,539l-32.41,8.43H570.36A41.63,41.63,0,0,0,612,505.77V132.82C612,121.6,606.28,105.25,599.29,96.48ZM89.46,95.77,111.62,68H262.79L277.7,43.45H131.17l16.36-20.52a16.55,16.55,0,0,1,13-6.27H506.34a16.57,16.57,0,0,1,13,6.27l16.35,20.52H386.58L394.91,68H555.27l22.16,27.79Zm6.76,102.56-9.34,2.43a18.62,18.62,0,0,0-13.34,22.71l.1.37a18.62,18.62,0,0,0,22.71,13.33l79.25-20.62a18.62,18.62,0,0,0,13.34-22.71l-.1-.36a18.62,18.62,0,0,0-22.71-13.34l-9.34,2.43a9.34,9.34,0,0,1-11.4-6.68l-.08-.31a21.7,21.7,0,0,0-26.46-15.53l-.48.12a21.71,21.71,0,0,0-15.54,26.46l.08.31A9.34,9.34,0,0,1,96.22,198.33Zm25.55-26.08A9.4,9.4,0,1,1,115,183.72,9.41,9.41,0,0,1,121.77,172.25Zm116.8,287.09a6.27,6.27,0,0,1-4.49,7.64l-115.3,30a6.28,6.28,0,0,1-7.65-4.49l-1.58-6.07a6.28,6.28,0,0,1,4.49-7.65l115.3-30a6.28,6.28,0,0,1,7.65,4.49Zm14.06-120.28,1.58,6.06a6.27,6.27,0,0,1-4.49,7.65L91.94,393.82a6.28,6.28,0,0,1-7.65-4.49l-1.58-6.07a6.28,6.28,0,0,1,4.49-7.65l157.78-41A6.27,6.27,0,0,1,252.63,339.06Zm-17.12-40.9-157.78,41a6.27,6.27,0,0,1-7.64-4.49l-1.58-6.07A6.25,6.25,0,0,1,73,321L230.77,280a6.28,6.28,0,0,1,7.65,4.49l1.58,6.07A6.28,6.28,0,0,1,235.51,298.16Zm-3.51,111L104.57,442.36a6.28,6.28,0,0,1-7.65-4.49l-1.58-6.06a6.27,6.27,0,0,1,4.49-7.65L227.27,391a6.27,6.27,0,0,1,7.64,4.49l1.58,6.07A6.25,6.25,0,0,1,232,409.21Zm114.71,67.35L274.09,197.41A31.36,31.36,0,0,0,235.86,175l-37,9.63a31.42,31.42,0,0,1-20.09,44.1L100.67,249c-15.94,4.14-33.1-4.06-38.45-19.64a32,32,0,0,1-1.71-8.79l-37,9.64A31.35,31.35,0,0,0,1,268.45L73.64,547.59A31.34,31.34,0,0,0,111.87,570l212.39-55.25A31.35,31.35,0,0,0,346.71,476.56ZM104,539.7,40.83,297l212.39-55.25,63.15,242.73Z"/></g></g></svg>