<svg xmlns="http://www.w3.org/2000/svg" xmlns:xlink="http://www.w3.org/1999/xlink" viewBox="0 0 512.18 393.92"><defs><style>.cls-1{fill:url(#Безымянный_градиент_8);}.cls-2{fill:url(#Безымянный_градиент_2);}.cls-3{fill:url(#Безымянный_градиент_3);}.cls-4{fill:#dea861;}.cls-5{fill:#cc8241;}.cls-6{fill:url(#Безымянный_градиент_6);}.cls-7{fill:url(#Безымянный_градиент_6-2);}.cls-8{fill:url(#Безымянный_градиент_6-3);}.cls-9{fill:#a996eb;}.cls-10{fill:#f2effa;}.cls-11{fill:#ff4757;}.cls-12{fill:#594a8e;}.cls-13{fill:url(#Безымянный_градиент_7);}.cls-14{fill:#ff7a85;}.cls-15{fill:url(#Безымянный_градиент_8-2);}.cls-16{fill:#06daae;}</style><linearGradient id="Безымянный_градиент_8" x1="454.56" y1="266.33" x2="501.61" y2="266.33" gradientTransform="matrix(1, 0, 0, -1, 0, 395.91)" gradientUnits="userSpaceOnUse"><stop offset="0" stop-color="#236568"/><stop offset="1" stop-color="#2f878a"/></linearGradient><linearGradient id="Безымянный_градиент_2" x1="209.97" y1="154.18" x2="254.28" y2="154.18" gradientTransform="matrix(1, 0, 0, -1, 0, 395.91)" gradientUnits="userSpaceOnUse"><stop offset="0" stop-color="#cc8241"/><stop offset="1" stop-color="#dea861"/></linearGradient><linearGradient id="Безымянный_градиент_3" x1="157.93" y1="351.29" x2="323.87" y2="255.49" gradientTransform="matrix(1, 0, 0, -1, 0, 395.91)" gradientUnits="userSpaceOnUse"><stop offset="0" stop-color="#dea861"/><stop offset="1" stop-color="#ebcba0"/></linearGradient><linearGradient id="Безымянный_градиент_6" x1="126.11" y1="220.53" x2="8.35" y2="293" gradientTransform="matrix(1, 0, 0, -1, 0, 395.91)" gradientUnits="userSpaceOnUse"><stop offset="0" stop-color="#43386b"/><stop offset="1" stop-color="#7662bd"/></linearGradient><linearGradient id="Безымянный_градиент_6-2" x1="162.34" y1="157.42" x2="44.58" y2="229.89" xlink:href="#Безымянный_градиент_6"/><linearGradient id="Безымянный_градиент_6-3" x1="424.74" y1="168.51" x2="456.26" y2="223.11" xlink:href="#Безымянный_градиент_6"/><linearGradient id="Безымянный_градиент_7" x1="400.18" y1="298.37" x2="451.81" y2="298.37" gradientTransform="matrix(1, 0, 0, -1, 0, 395.91)" gradientUnits="userSpaceOnUse"><stop offset="0" stop-color="#ab2c37"/><stop offset="1" stop-color="#ff7a85"/></linearGradient><linearGradient id="Безымянный_градиент_8-2" x1="202.54" y1="201.05" x2="247.45" y2="201.05" gradientTransform="matrix(0.58, -0.81, -0.81, -0.58, 403.27, 471.66)" xlink:href="#Безымянный_градиент_8"/></defs><title>fast-delivery</title><g id="Слой_2" data-name="Слой 2"><g id="Capa_1" data-name="Capa 1"><path class="cls-1" d="M500.21,122.51c-3.93-7.33-14.91-13.53-24.51-13.83-5.29-.17-9.05,1.49-10.72,4.23h0l-9.31,15h0c-1.52,2.27-1.57,5.32.27,8.74,3.93,7.34,14.9,13.54,24.51,13.84,5.55.18,9.41-1.66,10.94-4.65l8.82-14.21h0c1.78-2.3,1.92-5.51,0-9.12Z"/><path class="cls-2" d="M409,290.53v-201L86.44,103.38v201a13.53,13.53,0,0,0,6.84,11.84L221.06,390a29.37,29.37,0,0,0,29.38,0l151.74-87.61A13.55,13.55,0,0,0,409,290.53Z"/><path class="cls-3" d="M93.28,91.54,245,3.94a29.37,29.37,0,0,1,29.38,0L402.18,77.71a13.67,13.67,0,0,1,0,23.68L250.44,189a29.37,29.37,0,0,1-29.38,0L93.28,115.23A13.68,13.68,0,0,1,93.28,91.54Z"/><path class="cls-4" d="M142.48,63.14l163,94.09,43.23-25-163-94.09Z"/><path class="cls-5" d="M168.32,48.21l163,94.09-8.47,4.89-163-94.09Z"/><path class="cls-5" d="M305.46,157.23v35.71l43.24-25V132.27Z"/><path class="cls-6" d="M9.92,95.28,109,152.51a16.36,16.36,0,0,1,8.19,14.17,6.61,6.61,0,0,1-9.92,5.73L8.19,115.19A16.37,16.37,0,0,1,0,101,6.61,6.61,0,0,1,9.92,95.28Z"/><path class="cls-7" d="M46.16,158.39l99.12,57.23a16.37,16.37,0,0,1,8.18,14.17,6.61,6.61,0,0,1-9.92,5.73L44.42,178.3a16.37,16.37,0,0,1-8.19-14.18,6.62,6.62,0,0,1,9.93-5.73Z"/><path class="cls-8" d="M486.39,139.74h0l-33.66-19.38h0c-13.28-7-30.35-6-49,4.71-42.36,24.46-76.7,90.07-76.7,146.54,0,31.06,10.39,52.85,26.78,62.15l0,0,30.75,17.75,0-.06c13.52,8.08,31.25,7.49,50.68-3.72C477.66,323.3,512,257.69,512,201.21c0-30.31-9.9-51.81-25.61-61.47Z"/><ellipse class="cls-9" cx="435.45" cy="245.7" rx="117.75" ry="66.62" transform="translate(38.73 549.99) rotate(-66.92)"/><ellipse class="cls-10" cx="435.45" cy="245.7" rx="84.99" ry="48.08" transform="translate(38.72 549.99) rotate(-66.92)"/><path class="cls-11" d="M482.62,179.84c-9.72-15.67-27.27-19.74-47.32-8.16v73.81Z"/><path class="cls-12" d="M446,239.3c0-7.89-4.8-11.52-10.72-8.1s-10.72,12.59-10.72,20.48,4.8,11.52,10.72,8.11S446,247.2,446,239.3Z"/><path class="cls-12" d="M431.12,258.36V190.63a4.18,4.18,0,0,1,8.36,0v42l22.61-31.16a4.18,4.18,0,1,1,6.76,4.91Z"/><path class="cls-12" d="M437.8,123.9V108.66l-29.44,2v15.92h0c-.07,2,1.09,3.95,3.58,5.39,5.33,3.07,14.63,2.69,20.78-.86,3.55-2.06,5.26-4.71,5.06-7.19Z"/><path class="cls-13" d="M446,99.28V80.05l-45.8,3.09v20.29h0c-.12,3.14,1.69,6.15,5.56,8.38,8.29,4.79,22.77,4.19,32.34-1.34,5.53-3.19,8.19-7.33,7.87-11.18Z"/><ellipse class="cls-14" cx="423.25" cy="81.2" rx="23.05" ry="13.04" transform="translate(-6.71 51.79) rotate(-6.95)"/><path class="cls-15" d="M381.68,158.39l-13.61-9.71-20.95,34,14.36,10.24,0,0c2.16,1.66,5.21,1.9,8.74.29,7.57-3.45,14.46-14,15.38-23.57.53-5.53-1.05-9.5-3.94-11.22Z"/><ellipse class="cls-16" cx="357.22" cy="165.58" rx="20.03" ry="11.33" transform="translate(40.99 400.15) rotate(-61.44)"/></g></g></svg>