<svg xmlns="http://www.w3.org/2000/svg" xmlns:xlink="http://www.w3.org/1999/xlink" viewBox="0 0 482.05 512"><defs><style>.cls-1{fill:url(#Безымянный_градиент_13);}.cls-2{fill:url(#Безымянный_градиент_13-2);}.cls-3{fill:url(#Безымянный_градиент_3);}.cls-4{fill:url(#Безымянный_градиент_4);}.cls-5{fill:#dea861;}.cls-6{fill:#cc8241;}.cls-7{fill:url(#Безымянный_градиент_5);}.cls-8{fill:#e9e5f6;}.cls-9{fill:#06daae;}.cls-10{fill:url(#Безымянный_градиент_13-3);}.cls-11{fill:url(#Безымянный_градиент_13-4);}.cls-12{fill:url(#Безымянный_градиент_13-5);}.cls-13{fill:#7662bd;}.cls-14{fill:url(#Безымянный_градиент_13-6);}.cls-15{fill:url(#Безымянный_градиент_13-7);}.cls-16{fill:#a996eb;}.cls-17{fill:url(#Безымянный_градиент_11);}.cls-18{fill:#5d3645;}.cls-19{fill:url(#Безымянный_градиент_13-8);}.cls-20{fill:url(#Безымянный_градиент_13-9);}</style><linearGradient id="Безымянный_градиент_13" x1="80.6" y1="162.61" x2="96.31" y2="189.81" gradientTransform="translate(249.06 514) rotate(180)" gradientUnits="userSpaceOnUse"><stop offset="0" stop-color="#43386b"/><stop offset="1" stop-color="#7662bd"/></linearGradient><linearGradient id="Безымянный_градиент_13-2" x1="-63" y1="79.43" x2="-47.29" y2="106.64" xlink:href="#Безымянный_градиент_13"/><linearGradient id="Безымянный_градиент_3" x1="143.71" y1="304.6" x2="182.09" y2="304.6" gradientTransform="translate(400.05 514) rotate(180)" gradientUnits="userSpaceOnUse"><stop offset="0" stop-color="#dea861"/><stop offset="1" stop-color="#cc8241"/></linearGradient><linearGradient id="Безымянный_градиент_4" x1="98.62" y1="475.35" x2="242.37" y2="392.36" gradientTransform="translate(400.05 514) rotate(180)" gradientUnits="userSpaceOnUse"><stop offset="0" stop-color="#dea861"/><stop offset="1" stop-color="#ebcba0"/></linearGradient><linearGradient id="Безымянный_градиент_5" x1="389.46" y1="179.04" x2="338.34" y2="267.59" gradientTransform="matrix(1, 0, 0, -1, 0, 514)" gradientUnits="userSpaceOnUse"><stop offset="0" stop-color="#236568"/><stop offset="0.15" stop-color="#276a6c"/><stop offset="0.33" stop-color="#337878"/><stop offset="0.51" stop-color="#478e8c"/><stop offset="0.7" stop-color="#62afa7"/><stop offset="0.9" stop-color="#86d7ca"/><stop offset="1" stop-color="#9bf0df"/></linearGradient><linearGradient id="Безымянный_градиент_13-3" x1="283.92" y1="134.73" x2="283.92" y2="250.66" gradientTransform="matrix(1, 0, 0, -1, 0, 514)" xlink:href="#Безымянный_градиент_13"/><linearGradient id="Безымянный_градиент_13-4" x1="402.64" y1="135.29" x2="402.64" y2="265.12" gradientTransform="matrix(1, 0, 0, -1, 0, 514)" xlink:href="#Безымянный_градиент_13"/><linearGradient id="Безымянный_градиент_13-5" x1="284.41" y1="-13.68" x2="284.41" y2="124.17" gradientTransform="matrix(1, 0, 0, -1, 0, 514)" xlink:href="#Безымянный_градиент_13"/><linearGradient id="Безымянный_градиент_13-6" x1="140.81" y1="69.5" x2="140.81" y2="207.34" gradientTransform="matrix(1, 0, 0, -1, 0, 514)" xlink:href="#Безымянный_градиент_13"/><linearGradient id="Безымянный_градиент_13-7" x1="350.54" y1="65.72" x2="368.99" y2="65.72" gradientTransform="matrix(1, 0, 0, -1, 0, 514)" xlink:href="#Безымянный_градиент_13"/><linearGradient id="Безымянный_градиент_11" x1="420.52" y1="79.63" x2="420.52" y2="116.69" gradientTransform="matrix(1, 0, 0, -1, 0, 514)" gradientUnits="userSpaceOnUse"><stop offset="0" stop-color="#43386b"/><stop offset="1" stop-color="#594a8e"/></linearGradient><linearGradient id="Безымянный_градиент_13-8" x1="111.9" y1="302.05" x2="7.41" y2="366.36" gradientTransform="matrix(1, 0, 0, -1, 0, 514)" xlink:href="#Безымянный_градиент_13"/><linearGradient id="Безымянный_градиент_13-9" x1="144.05" y1="246.05" x2="39.56" y2="310.36" gradientTransform="matrix(1, 0, 0, -1, 0, 514)" xlink:href="#Безымянный_градиент_13"/></defs><title>free</title><g id="Слой_2" data-name="Слой 2"><g id="Capa_1" data-name="Capa 1"><path class="cls-1" d="M115.36,320.62l36.29-20.86h0c6.62-3.51,15.12-3,24.4,2.35,21.1,12.18,38.2,44.86,38.2,73,0,15.47-5.18,26.33-13.34,31h0l-34.85,20.06Z"/><path class="cls-2" d="M259,403.8l36.29-20.87h0c6.61-3.5,15.11-3,24.39,2.35,21.1,12.18,38.2,44.86,38.2,73,0,15.47-5.18,26.33-13.34,31h0L309.67,509.3Z"/><path class="cls-3" d="M83.92,251.67V77.57l279.42,12V263.65a11.73,11.73,0,0,1-5.92,10.26L246.73,337.82a25.48,25.48,0,0,1-25.45,0L89.84,261.93a11.73,11.73,0,0,1-5.92-10.26Z"/><path class="cls-4" d="M357.42,79.3,226,3.41a25.41,25.41,0,0,0-25.44,0L89.84,67.32a11.84,11.84,0,0,0,0,20.51l131.44,75.89a25.43,25.43,0,0,0,25.45,0L357.42,99.81A11.84,11.84,0,0,0,357.42,79.3Z"/><path class="cls-5" d="M314.8,54.69,173.62,136.2l-37.45-21.62L277.35,33.07Z"/><path class="cls-6" d="M292.42,41.76,151.24,123.27l7.33,4.23L299.75,46Z"/><path class="cls-7" d="M474.06,336.09,447.3,223.87A50.31,50.31,0,0,0,423.52,192L366,158.73a9,9,0,0,0-10.12.75L255.32,217.54l-20.17,11.64L351.86,485.27l118.36-68.33a9.68,9.68,0,0,0,2.31-1.34,9.57,9.57,0,0,0,3.76-7.68V355.06a81.31,81.31,0,0,0-2.23-19Z"/><path class="cls-8" d="M369.49,408.67l16.86-9.74a1.51,1.51,0,0,1,2.26,1.31V415a5.61,5.61,0,0,1-2.81,4.86l-16.86,9.73a1.5,1.5,0,0,1-2.26-1.3v-14.8A5.6,5.6,0,0,1,369.49,408.67Z"/><path class="cls-8" d="M452.45,360.72,469.31,351a1.51,1.51,0,0,1,2.26,1.3v14.8a5.63,5.63,0,0,1-2.81,4.87l-16.86,9.73a1.51,1.51,0,0,1-2.26-1.31v-14.8A5.61,5.61,0,0,1,452.45,360.72Z"/><path class="cls-9" d="M231.58,325.87v-89.5a9,9,0,0,1,13.55-7.82l57.53,33.26a50.26,50.26,0,0,1,23.77,31.88L353.2,405.9a82,82,0,0,1,2.23,19v52.86a9.74,9.74,0,0,1-14.61,8.43L95.28,344a23.08,23.08,0,0,1-11.54-20V268.11A5.86,5.86,0,0,1,92.53,263l123.62,71.73a10.28,10.28,0,0,0,15.44-8.89Z"/><path class="cls-10" d="M246.45,340.64V248.92l46.42,26.84a18.57,18.57,0,0,1,8.9,12.34L321.4,384Z"/><path class="cls-11" d="M443.6,232.73,340.49,292.25,361.68,384l103.11-59.53Z"/><path class="cls-12" d="M246.21,434.42c0-28.13,17.1-41.07,38.2-28.88s38.2,44.86,38.2,73-17.1,41.07-38.2,28.88S246.21,462.55,246.21,434.42Z"/><ellipse class="cls-8" cx="284.57" cy="456.27" rx="20.66" ry="36.52" transform="translate(-156.08 148.06) rotate(-23.08)"/><ellipse class="cls-13" cx="284.57" cy="456.27" rx="10.53" ry="18.6" transform="translate(-156.08 148.06) rotate(-23.08)"/><path class="cls-14" d="M102.61,351.25c0-28.14,17.1-41.07,38.2-28.89s38.2,44.87,38.2,73-17.1,41.06-38.2,28.88S102.61,379.38,102.61,351.25Z"/><ellipse class="cls-8" cx="140.95" cy="373.18" rx="20.66" ry="36.52" transform="translate(-135 85.12) rotate(-23.08)"/><path class="cls-13" d="M128.69,366.31c0-8.93,5.43-13,12.12-9.16s12.12,14.23,12.12,23.15-5.43,13-12.12,9.16S128.69,375.23,128.69,366.31Z"/><path class="cls-15" d="M476,402.62l-124,67.9-22.86-11v26.58l19.61,11.32a11.18,11.18,0,0,0,11.19,0l119.82-69.18a4.63,4.63,0,0,0,2.34-4.05V397.63Z"/><path class="cls-16" d="M334.4,456.48l21,12.14,120.86-69.78v-7.23l3.42,2a4.67,4.67,0,0,1,0,8.1L359.89,470.86a11.23,11.23,0,0,1-11.19,0l-19.61-11.32Z"/><path class="cls-17" d="M395.18,422l50.69-29.26v8.69a15.47,15.47,0,0,1-7.73,13.39l-35.35,20.4a5.07,5.07,0,0,1-7.61-4.39V422Z"/><path class="cls-18" d="M118.3,127l0,10-17.5-10.1v10.7l16.16,9.33v10l-16.16-9.33V165l-9.42-5.44V111.44Z"/><path class="cls-18" d="M144.23,190.07,139,173.73l-.2-.12-6.8-3.92V183l-9.41-5.44V129.47l16.21,9.36a29,29,0,0,1,15,25.55c0,7.27-2.26,11.32-6.43,11.79l7.51,20.05ZM132,159.67l6.85,4c3.8,2.2,6,.87,6-4a12,12,0,0,0-6-10.75l-6.85-4Z"/><path class="cls-18" d="M188.27,167.41v10l-19-11v9l17.19,9.92v9.95l-17.19-9.85v9.05l19.56,11.29v10l-29-16.73V151Z"/><path class="cls-18" d="M223,187.46v10l-19-11v9l17.19,9.92v10L204,205.49v9l19.56,11.29v10l-29-16.73V171Z"/><path class="cls-19" d="M8.81,140.87l88,50.78A14.54,14.54,0,0,1,104,204.23a5.87,5.87,0,0,1-8.81,5.08L7.26,158.53A14.52,14.52,0,0,1,0,146a5.87,5.87,0,0,1,8.81-5.09Z"/><path class="cls-20" d="M41,196.87l87.95,50.78a14.53,14.53,0,0,1,7.26,12.58,5.87,5.87,0,0,1-8.81,5.08L39.41,214.53A14.53,14.53,0,0,1,32.15,202,5.87,5.87,0,0,1,41,196.87Z"/></g></g></svg>