<svg xmlns="http://www.w3.org/2000/svg" viewBox="0 0 165.13 151.14"><defs><style>.cls-1{fill:#a9b5e8;}</style></defs><g id="Слой_2" data-name="Слой 2"><g id="Группа_6" data-name="Группа 6"><path class="cls-1" d="M158.13,109.48a36,36,0,0,0-.13-4l7.13-4.35A42.55,42.55,0,0,0,163.26,94l-8.34-.23a34.51,34.51,0,0,0-5.37-8.3l3.22-7.68a43.82,43.82,0,0,0-5.7-4.65l-6.85,4.71A34.76,34.76,0,0,0,131,74.31l-1.92-8.12c-1.57-.22-3.15-.36-4.74-.43h-2.54L119,73.63a35.2,35.2,0,0,0-5.09,1l-6.62-5.1a49.27,49.27,0,0,0,.93-8.21,53,53,0,0,0-.18-5.64l10-6.1a59.9,59.9,0,0,0-2.63-9.94l-11.69-.32a48.67,48.67,0,0,0-7.53-11.64l4.51-10.78a58.78,58.78,0,0,0-8-6.51L83.06,17a49,49,0,0,0-13-5L67.42.59C65.21.28,63,.09,60.77,0H57.2l-4,11A48.75,48.75,0,0,0,39.8,14.58L31,7a58.9,58.9,0,0,0-8.57,5.59l3.31,11.2a48.65,48.65,0,0,0-8.76,10.74L5.2,33.58a58.25,58.25,0,0,0-3.71,9.6l9.27,7.13a49,49,0,0,0-.93,8.19A50.88,50.88,0,0,0,10,64.16l-10,6a58.83,58.83,0,0,0,2.64,10l11.67.32a50,50,0,0,0,7.53,11.64l-4.51,10.78a61,61,0,0,0,8,6.51l9.6-6.61a48.5,48.5,0,0,0,13,5l2.69,11.37a62.61,62.61,0,0,0,6.7.56h3.58l3.83-11a48.33,48.33,0,0,0,13.41-3.55l8.42,7.25L81,115.82a42.44,42.44,0,0,0,1.88,7.1l8.32.22a35.71,35.71,0,0,0,5.37,8.31l-3.21,7.68a42.31,42.31,0,0,0,5.7,4.64l6.84-4.71a34.63,34.63,0,0,0,9.31,3.57l1.91,8.11a45.08,45.08,0,0,0,4.78.4h2.55l2.73-7.83a34.55,34.55,0,0,0,9.57-2.54l6.31,5.44a43.51,43.51,0,0,0,6.16-4l-2.35-8a35.41,35.41,0,0,0,6.25-7.66l8.3.68a42.07,42.07,0,0,0,2.65-6.84l-6.6-5.09A35.76,35.76,0,0,0,158.13,109.48ZM58.32,83.36a23.49,23.49,0,1,1,1.33-47h0a23.49,23.49,0,0,1-1.34,47Zm64.26,41.85a16.75,16.75,0,1,1,1-33.49h0a16.75,16.75,0,0,1-1,33.49Z"/></g></g></svg>