<svg xmlns="http://www.w3.org/2000/svg" viewBox="0 0 73.78 74.87"><defs><style>.cls-1{fill:#ccc;}</style></defs><g id="Слой_2" data-name="Слой 2"><g id="Слой_1-2" data-name="Слой 1"><g id="Слой_2-2" data-name="Слой 2"><g id="Слой_1-2-2" data-name="Слой 1-2"><path class="cls-1" d="M42.16.37A41.46,41.46,0,0,0,38,0H35.77L33.28,6.9a30.16,30.16,0,0,0-8.39,2.22L19.36,4.35A37.1,37.1,0,0,0,14,7.85l2.07,7a30.55,30.55,0,0,0-5.48,6.72L3.25,21A37,37,0,0,0,.93,27l5.8,4.46a30.41,30.41,0,0,0-.58,5.12,29.9,29.9,0,0,0,.1,3.54L0,43.9a37,37,0,0,0,1.65,6.22l7.3.2a31.09,31.09,0,0,0,4.71,7.28l-2.82,6.74a37.5,37.5,0,0,0,5,4.07l6-4.13A30.62,30.62,0,0,0,30,67.41l1.68,7.11a39.23,39.23,0,0,0,4.19.35h2.24L40.5,68a30.16,30.16,0,0,0,8.39-2.22l5.54,4.77a38.94,38.94,0,0,0,5.4-3.5l-2.06-7a31.07,31.07,0,0,0,5.48-6.72l7.28.6a37,37,0,0,0,2.32-6l-5.79-4.46a30.53,30.53,0,0,0,.58-5.13,32,32,0,0,0-.11-3.53L73.78,31a36.06,36.06,0,0,0-1.64-6.22l-7.31-.2a30.58,30.58,0,0,0-4.71-7.28l2.82-6.74a37.5,37.5,0,0,0-5-4.07l-6,4.13a30.57,30.57,0,0,0-8.1-3.13Zm9.41,37.49A14.69,14.69,0,1,1,37.3,22.76h0A14.68,14.68,0,0,1,51.57,37.86Z"/></g></g></g></g></svg>