<svg xmlns="http://www.w3.org/2000/svg" xmlns:xlink="http://www.w3.org/1999/xlink" viewBox="0 0 512.18 287.46"><defs><style>.cls-1{fill:url(#Безымянный_градиент);}.cls-2{fill:#06daae;}.cls-3{fill:#2f878a;}.cls-4{fill:url(#Безымянный_градиент_4);}.cls-5{fill:#ffc538;}.cls-6{fill:url(#Безымянный_градиент_4-2);}.cls-7{fill:url(#Безымянный_градиент_4-3);}</style><linearGradient id="Безымянный_градиент" x1="253.37" y1="139.7" x2="287.93" y2="119.75" gradientTransform="matrix(1, 0, 0, -1, 0, 289.46)" gradientUnits="userSpaceOnUse"><stop offset="0" stop-color="#236568"/><stop offset="1" stop-color="#2f878a"/></linearGradient><linearGradient id="Безымянный_градиент_4" x1="378.84" y1="135.82" x2="505.37" y2="227.04" gradientTransform="matrix(1, 0, 0, -1, 0, 289.46)" gradientUnits="userSpaceOnUse"><stop offset="0" stop-color="#cc8241"/><stop offset="1" stop-color="#ffc538"/></linearGradient><linearGradient id="Безымянный_градиент_4-2" x1="534.62" y1="226.2" x2="343.08" y2="157.12" xlink:href="#Безымянный_градиент_4"/><linearGradient id="Безымянный_градиент_4-3" x1="420.13" y1="189.19" x2="479.52" y2="223.48" xlink:href="#Безымянный_градиент_4"/></defs><g id="Слой_2" data-name="Слой 2"><g id="Capa_1" data-name="Capa 1"><path class="cls-1" d="M485.84,114.9c.05-1.78-1.23-3.67-3.77-5.14L295.72,2.18c-4.55-2.63-11.44-2.92-15.39-.64L2.66,161.85A4.68,4.68,0,0,0,0,165.49H0v7.14H0c0,1.76,1.25,3.62,3.76,5.07L190.12,285.29c4.55,2.63,11.44,2.91,15.39.64L483.18,125.61c1.81-1,2.68-2.46,2.65-3.93h0V114.9Z"/><path class="cls-2" d="M483.18,118.65,205.51,279c-3.95,2.28-10.84,2-15.39-.64L3.77,170.74c-4.56-2.63-5-6.61-1.11-8.89L280.33,1.54c3.95-2.28,10.84-2,15.39.64L482.07,109.76c4.56,2.63,5.05,6.61,1.11,8.89Z"/><path class="cls-3" d="M291.3,28.19,437,112.32l-242.47,140L48.83,168.18Z"/><ellipse class="cls-2" cx="243.01" cy="140.17" rx="34.66" ry="61.27" transform="translate(74.48 364.44) rotate(-83.05)"/><path class="cls-2" d="M180.34,176.38c10.46,6,11.59,15.16,2.54,20.39s-24.87,4.57-35.32-1.46S136,180.14,145,174.91,169.89,170.34,180.34,176.38Z"/><path class="cls-2" d="M338.28,85.19c10.45,6,11.59,15.17,2.54,20.4s-24.87,4.57-35.32-1.47S293.91,89,303,83.73,327.83,79.16,338.28,85.19Z"/><path class="cls-4" d="M512,94c-.14-10.81-6.75-21.13-20.12-28.85C462,47.94,409.89,50.1,375.43,70,355.57,81.46,345.94,96.32,347,110.15h-.11v31.45H347c.64,10.33,7.22,20.12,20.06,27.53,29.84,17.23,82,15.07,116.42-4.82,19.12-11,28.74-25.22,28.46-38.6h0V94Z"/><ellipse class="cls-5" cx="429.62" cy="101.26" rx="82.98" ry="46.94" transform="translate(-9.09 52.71) rotate(-6.95)"/><path class="cls-6" d="M388.51,77.54c-26.12,15.08-29,37.9-6.34,51s62.13,11.42,88.25-3.66,29-37.89,6.34-51S414.63,62.46,388.51,77.54Z"/><path class="cls-7" d="M388.51,85.4c26.12-15.08,65.63-16.72,88.25-3.66,8.63,5,13.54,11.39,14.88,18.24,1.84-9.7-3-19.24-14.88-26.09-22.62-13.06-62.13-11.43-88.25,3.65-16.16,9.33-23.4,21.62-21.22,32.72C369,101.48,376.09,92.57,388.51,85.4Z"/></g></g></svg>