<?xml version="1.0" encoding="utf-8"?>
<!-- Generator: Adobe Illustrator 25.0.1, SVG Export Plug-In . SVG Version: 6.00 Build 0)  -->
<svg version="1.1" id="Слой_1" xmlns="http://www.w3.org/2000/svg" xmlns:xlink="http://www.w3.org/1999/xlink" x="0px" y="0px"
	 viewBox="0 0 512 512" style="enable-background:new 0 0 512 512;" xml:space="preserve">
<style type="text/css">
	.st0{fill:#7A7B7B;}
</style>
<g id="Слой_2_1_">
	<g id="Capa_1">
		<path class="st0" d="M510,463.7l-35.1-102.3c61.2-123.9,10.3-273.9-113.5-335S87.4,16,26.3,139.9s-10.3,273.9,113.5,335
			c34.4,17,72.2,25.8,110.6,25.9h0.4c38.4-0.1,76.2-8.9,110.6-25.9L463.6,510c3.9,1.3,7.9,2,12,2c20.2-0.1,36.4-16.5,36.3-36.7
			C512,471.4,511.3,467.4,510,463.7z M479.8,479.8c-1.6,1.7-4.1,2.3-6.3,1.5L365.1,444c-4-1.4-8.3-1-12,0.9
			c-31.6,16.6-66.7,25.4-102.4,25.4C131.2,470.6,32.3,373.5,30.4,254c-2-121.5,94.8-221.6,216.3-223.6c2.4,0,4.9,0,7.3,0
			c119.5,1.9,216.6,100.7,216.4,220.3c-0.1,35.7-8.8,70.8-25.4,102.4c-2,3.7-2.3,8-0.9,12l37.2,108.4
			C482.1,475.7,481.6,478.2,479.8,479.8L479.8,479.8z"/>
		<path class="st0" d="M247.9,362.8c-7.9,0-15.6,7-15.2,15.2s6.7,15.2,15.2,15.2c7.9,0,15.5-7,15.2-15.2S256.4,362.8,247.9,362.8z"
			/>
		<path class="st0" d="M247.9,127.7c-41.7,0-75.5,33.8-75.5,75.5c0,8.4,6.8,15.2,15.2,15.2c8.4,0,15.2-6.8,15.2-15.2
			c0-24.9,20.2-45.2,45.2-45.2s45.2,20.2,45.2,45.2s-20.2,45.2-45.2,45.2c-8.4,0-15.2,6.8-15.2,15.2l0,0v61.9
			c0,8.4,6.8,15.2,15.2,15.2s15.2-6.8,15.2-15.2v-48.3c40.9-8.4,67.2-48.3,58.8-89.2C314.7,152.9,283.8,127.7,247.9,127.7
			L247.9,127.7z"/>
	</g>
</g>
</svg>
