<svg xmlns="http://www.w3.org/2000/svg" viewBox="0 0 111.09 89.4"><defs><style>.cls-1{opacity:0.15;isolation:isolate;}.cls-2{fill:#5160a4;}</style></defs><g id="Слой_2" data-name="Слой 2"><g id="Слой_1-2" data-name="Слой 1"><g class="cls-1"><path class="cls-2" d="M44,6.74a22.54,22.54,0,0,1,7,17,37,37,0,0,1-1.9,11.44A145.18,145.18,0,0,1,42.5,51L23.74,89.4H0L12.31,43.68Q1.47,36,1.47,23.45A22,22,0,0,1,8.65,6.74,24.9,24.9,0,0,1,26.38,0Q36.94,0,44,6.74Zm60.09,0a22.54,22.54,0,0,1,7,17,37,37,0,0,1-1.9,11.44A145.18,145.18,0,0,1,102.59,51L83.83,89.4H60.09L72.4,43.68Q61.56,36,61.56,23.45A22,22,0,0,1,68.74,6.74,24.9,24.9,0,0,1,86.47,0Q97,0,104.06,6.74Z"/></g></g></g></svg>