<svg xmlns="http://www.w3.org/2000/svg" xmlns:xlink="http://www.w3.org/1999/xlink" viewBox="0 0 398.31 512"><defs><style>.cls-1{fill:url(#Безымянный_градиент_11);}.cls-2{fill:url(#Безымянный_градиент_11-2);}.cls-3{fill:url(#Безымянный_градиент_3);}.cls-4{fill:url(#Безымянный_градиент_4);}.cls-5{fill:#dea861;}.cls-6{fill:#cc8241;}.cls-7{fill:#ba5c25;}.cls-8{fill:url(#Безымянный_градиент_6);}.cls-9{fill:#e9e5f6;}.cls-10{fill:url(#Безымянный_градиент_6-2);}.cls-11{fill:url(#Безымянный_градиент_11-3);}.cls-12{fill:url(#Безымянный_градиент_11-4);}.cls-13{fill:url(#Безымянный_градиент_11-5);}.cls-14{fill:#7662bd;}.cls-15{fill:url(#Безымянный_градиент_11-6);}.cls-16{fill:url(#Безымянный_градиент_11-7);}.cls-17{fill:#a996eb;}.cls-18{fill:url(#Безымянный_градиент_12);}</style><linearGradient id="Безымянный_градиент_11" x1="80.6" y1="162.61" x2="96.31" y2="189.81" gradientTransform="translate(165.33 514) rotate(180)" gradientUnits="userSpaceOnUse"><stop offset="0" stop-color="#43386b"/><stop offset="1" stop-color="#7662bd"/></linearGradient><linearGradient id="Безымянный_градиент_11-2" x1="-63" y1="79.43" x2="-47.29" y2="106.64" xlink:href="#Безымянный_градиент_11"/><linearGradient id="Безымянный_градиент_3" x1="143.7" y1="304.6" x2="182.09" y2="304.6" gradientTransform="translate(316.31 514) rotate(180)" gradientUnits="userSpaceOnUse"><stop offset="0" stop-color="#dea861"/><stop offset="1" stop-color="#cc8241"/></linearGradient><linearGradient id="Безымянный_градиент_4" x1="98.62" y1="475.35" x2="242.37" y2="392.35" gradientTransform="translate(316.31 514) rotate(180)" gradientUnits="userSpaceOnUse"><stop offset="0" stop-color="#dea861"/><stop offset="1" stop-color="#ebcba0"/></linearGradient><linearGradient id="Безымянный_градиент_6" x1="346.65" y1="93.84" x2="228" y2="323.56" gradientTransform="matrix(1, 0, 0, -1, 0, 514)" gradientUnits="userSpaceOnUse"><stop offset="0" stop-color="#ab2c37"/><stop offset="1" stop-color="#ff4757"/></linearGradient><linearGradient id="Безымянный_градиент_6-2" x1="135.85" y1="108.86" x2="135.85" y2="503.28" xlink:href="#Безымянный_градиент_6"/><linearGradient id="Безымянный_градиент_11-3" x1="200.19" y1="134.73" x2="200.19" y2="250.66" gradientTransform="matrix(1, 0, 0, -1, 0, 514)" xlink:href="#Безымянный_градиент_11"/><linearGradient id="Безымянный_градиент_11-4" x1="318.9" y1="135.29" x2="318.9" y2="265.12" gradientTransform="matrix(1, 0, 0, -1, 0, 514)" xlink:href="#Безымянный_градиент_11"/><linearGradient id="Безымянный_градиент_11-5" x1="200.67" y1="-13.68" x2="200.67" y2="124.17" gradientTransform="matrix(1, 0, 0, -1, 0, 514)" xlink:href="#Безымянный_градиент_11"/><linearGradient id="Безымянный_градиент_11-6" x1="57.07" y1="69.5" x2="57.07" y2="207.34" gradientTransform="matrix(1, 0, 0, -1, 0, 514)" xlink:href="#Безымянный_градиент_11"/><linearGradient id="Безымянный_градиент_11-7" x1="266.8" y1="65.72" x2="285.25" y2="65.72" gradientTransform="matrix(1, 0, 0, -1, 0, 514)" xlink:href="#Безымянный_градиент_11"/><linearGradient id="Безымянный_градиент_12" x1="336.79" y1="79.63" x2="336.79" y2="116.69" gradientTransform="matrix(1, 0, 0, -1, 0, 514)" gradientUnits="userSpaceOnUse"><stop offset="0" stop-color="#43386b"/><stop offset="1" stop-color="#594a8e"/></linearGradient></defs><title>shipping</title><g id="Слой_2" data-name="Слой 2"><g id="Capa_1" data-name="Capa 1"><path class="cls-1" d="M31.62,320.62l36.3-20.86h0c6.62-3.51,15.12-3,24.39,2.35,21.1,12.18,38.2,44.86,38.2,73,0,15.47-5.17,26.33-13.34,31h0L82.33,426.13Z"/><path class="cls-2" d="M175.22,403.8l36.3-20.87h0c6.62-3.5,15.12-3,24.39,2.35,21.1,12.18,38.21,44.86,38.21,73,0,15.47-5.18,26.33-13.34,31h0L225.93,509.3Z"/><path class="cls-3" d="M.18,251.67V77.57l279.43,12V263.65a11.73,11.73,0,0,1-5.92,10.26L163,337.82a25.46,25.46,0,0,1-25.44,0L6.1,261.93A11.73,11.73,0,0,1,.18,251.67Z"/><path class="cls-4" d="M273.69,79.3,142.24,3.41a25.41,25.41,0,0,0-25.44,0L6.1,67.32a11.84,11.84,0,0,0,0,20.51l131.45,75.89a25.41,25.41,0,0,0,25.44,0l110.7-63.91A11.84,11.84,0,0,0,273.69,79.3Z"/><path class="cls-5" d="M231.07,54.69,89.89,136.2,52.44,114.58,193.62,33.07Z"/><path class="cls-6" d="M208.68,41.76,67.5,123.27l7.34,4.23L216,46Z"/><path class="cls-7" d="M89.88,136.2v30.93L52.43,145.51V114.58Z"/><path class="cls-8" d="M390.33,336.09,363.56,223.87A50.29,50.29,0,0,0,339.79,192l-57.53-33.26a9,9,0,0,0-10.12.75L171.58,217.54l-20.16,11.64,7.91,60.55L172,297.14l96.12,188.13,118.37-68.33a10.08,10.08,0,0,0,2.31-1.34,9.6,9.6,0,0,0,3.76-7.68V355.06a81.85,81.85,0,0,0-2.23-19Z"/><path class="cls-9" d="M285.75,408.67l16.86-9.74a1.51,1.51,0,0,1,2.26,1.31V415a5.61,5.61,0,0,1-2.81,4.86l-16.86,9.73a1.51,1.51,0,0,1-2.26-1.3v-14.8A5.6,5.6,0,0,1,285.75,408.67Z"/><path class="cls-9" d="M368.71,360.72,385.57,351a1.5,1.5,0,0,1,2.26,1.3v14.8A5.63,5.63,0,0,1,385,372l-16.85,9.73a1.51,1.51,0,0,1-2.26-1.31v-14.8A5.62,5.62,0,0,1,368.71,360.72Z"/><path class="cls-10" d="M147.85,325.87v-89.5a9,9,0,0,1,13.55-7.82l57.52,33.26a50.31,50.31,0,0,1,23.78,31.88L269.46,405.9a81.47,81.47,0,0,1,2.24,19v52.86a9.74,9.74,0,0,1-14.61,8.43L11.54,344A23.1,23.1,0,0,1,0,324V268.11A5.87,5.87,0,0,1,8.79,263l123.63,71.73A10.27,10.27,0,0,0,147.85,325.87Z"/><path class="cls-11" d="M162.71,340.64V248.92l46.43,26.84A18.55,18.55,0,0,1,218,288.1L237.66,384Z"/><path class="cls-12" d="M359.86,232.73l-103.1,59.52L278,384l103.1-59.53Z"/><path class="cls-13" d="M162.47,434.42c0-28.13,17.1-41.07,38.2-28.88s38.21,44.86,38.21,73-17.11,41.07-38.21,28.88-38.2-44.86-38.2-73Z"/><ellipse class="cls-9" cx="200.84" cy="456.29" rx="20.66" ry="36.52" transform="translate(-162.79 115.24) rotate(-23.08)"/><ellipse class="cls-14" cx="200.84" cy="456.29" rx="10.53" ry="18.6" transform="translate(-162.79 115.24) rotate(-23.08)"/><path class="cls-15" d="M18.87,351.25c0-28.14,17.1-41.07,38.2-28.89s38.21,44.87,38.21,73-17.11,41.06-38.21,28.88S18.87,379.38,18.87,351.25Z"/><ellipse class="cls-9" cx="57.22" cy="373.2" rx="20.66" ry="36.52" transform="translate(-141.71 52.3) rotate(-23.08)"/><path class="cls-14" d="M45,366.31c0-8.93,5.42-13,12.11-9.16s12.12,14.23,12.12,23.15-5.42,13-12.12,9.16S45,375.23,45,366.31Z"/><path class="cls-16" d="M392.22,402.62l-124,67.9-22.85-11v26.58L265,497.44a11.18,11.18,0,0,0,11.19,0L396,428.26a4.63,4.63,0,0,0,2.34-4.05V397.63Z"/><path class="cls-17" d="M250.66,456.48l21,12.14,120.87-69.78v-7.23l3.41,2a4.67,4.67,0,0,1,0,8.1L276.15,470.86a11.23,11.23,0,0,1-11.19,0l-19.6-11.32Z"/><path class="cls-18" d="M311.45,422l50.68-29.26v8.69a15.47,15.47,0,0,1-7.73,13.39l-35.34,20.4a5.08,5.08,0,0,1-7.62-4.39V422Z"/></g></g></svg>