<svg xmlns="http://www.w3.org/2000/svg" xmlns:xlink="http://www.w3.org/1999/xlink" viewBox="0 0 512.18 506.7"><defs><style>.cls-1{fill:url(#Безымянный_градиент);}.cls-2{fill:url(#Безымянный_градиент_2);}.cls-3{fill:#dea861;}.cls-4{fill:#cc8241;}.cls-5{fill:url(#Безымянный_градиент_5);}.cls-6{fill:url(#Безымянный_градиент_4);}.cls-7{fill:url(#Безымянный_градиент_5-2);}.cls-8{fill:#a996eb;}.cls-9{fill:#f2effa;}</style><linearGradient id="Безымянный_градиент" x1="158.89" y1="197.75" x2="215.89" y2="197.75" gradientTransform="matrix(1, 0, 0, -1, 0, 508.7)" gradientUnits="userSpaceOnUse"><stop offset="0" stop-color="#cc8241"/><stop offset="1" stop-color="#dea861"/></linearGradient><linearGradient id="Безымянный_градиент_2" x1="91.95" y1="451.31" x2="305.41" y2="328.07" gradientTransform="matrix(1, 0, 0, -1, 0, 508.7)" gradientUnits="userSpaceOnUse"><stop offset="0" stop-color="#dea861"/><stop offset="1" stop-color="#ebcba0"/></linearGradient><linearGradient id="Безымянный_градиент_5" x1="381.58" y1="135" x2="434.63" y2="135" gradientTransform="matrix(1, 0, 0, -1, 0, 508.7)" gradientUnits="userSpaceOnUse"><stop offset="0" stop-color="#43386b"/><stop offset="1" stop-color="#7662bd"/></linearGradient><linearGradient id="Безымянный_градиент_4" x1="381.58" y1="171.02" x2="434.63" y2="171.02" gradientTransform="matrix(1, 0, 0, -1, 0, 508.7)" gradientUnits="userSpaceOnUse"><stop offset="0" stop-color="#d7d1eb"/><stop offset="1" stop-color="#e9e5f6"/></linearGradient><linearGradient id="Безымянный_градиент_5-2" x1="420.39" y1="279.86" x2="453.49" y2="337.18" xlink:href="#Безымянный_градиент_5"/></defs><title>tracking</title><g id="Слой_2" data-name="Слой 2"><g id="Capa_1" data-name="Capa 1"><path class="cls-1" d="M414.93,373.71V115.19L0,133V391.51a17.43,17.43,0,0,0,8.79,15.23l164.37,94.9a37.79,37.79,0,0,0,37.79,0L406.14,389A17.44,17.44,0,0,0,414.93,373.71Z"/><path class="cls-2" d="M8.79,117.75,204,5.06a37.79,37.79,0,0,1,37.79,0L406.14,100a17.59,17.59,0,0,1,0,30.46L211,243.12a37.82,37.82,0,0,1-37.78,0L8.79,148.22a17.6,17.6,0,0,1,0-30.47Z"/><path class="cls-3" d="M72.08,81.21l209.65,121,55.61-32.1-209.65-121Z"/><path class="cls-4" d="M105.32,62,315,183.05l-10.89,6.28L94.43,68.3Z"/><path class="cls-4" d="M281.73,202.25v45.93l55.61-32.11V170.15Z"/><path class="cls-5" d="M434.63,281.71l-53.05,5.67V453.75h.09c.42,3.08,2.53,6,6.39,8.21,9.59,5.54,26.34,4.84,37.41-1.55,6.37-3.68,9.46-8.44,9.12-12.88h0V281.71Z"/><path class="cls-6" d="M381.58,381.7h.09c.42,3.09,2.53,6,6.39,8.22,9.59,5.53,26.34,4.84,37.41-1.55,6.37-3.68,9.46-8.45,9.12-12.88h0V281.71l-53.05,5.67Z"/><path class="cls-7" d="M485.12,136.81h0l-35.33-20.34h0c-14-7.39-31.86-6.33-51.41,5-44.47,25.68-80.52,94.56-80.52,153.85,0,32.6,10.92,55.48,28.12,65.24l0,0,32.28,18.64,0-.07c14.19,8.48,32.8,7.87,53.2-3.91C476,329.51,512,260.63,512,201.33c0-31.81-10.39-54.39-26.88-64.52Z"/><ellipse class="cls-8" cx="431.63" cy="248" rx="123.62" ry="69.94" transform="translate(34.28 547.88) rotate(-66.92)"/><ellipse class="cls-9" cx="431.63" cy="248" rx="89.23" ry="50.48" transform="translate(34.28 547.88) rotate(-66.92)"/></g></g></svg>