<svg xmlns="http://www.w3.org/2000/svg" viewBox="0 0 612 437.63"><title>transportation</title><g id="Слой_2" data-name="Слой 2"><g id="Capa_1" data-name="Capa 1"><path d="M61.25,324a56.81,56.81,0,1,0,56.81,56.81A56.82,56.82,0,0,0,61.25,324Zm0,85.22a28.41,28.41,0,1,1,28.4-28.41A28.41,28.41,0,0,1,61.25,409.23ZM498.35,269l-77.28,47.85a27.16,27.16,0,0,1-2.24-10.79V230.79a27.07,27.07,0,0,1,1.91-9.85Zm-67.74-60.62a27.15,27.15,0,0,1,15.5-4.86H584.72a27,27,0,0,1,13.44,3.68l-84.73,52.46ZM528.51,269l80.71-50A26.94,26.94,0,0,1,612,230.79v75.26a27,27,0,0,1-3.24,12.63Zm-123.57,78.1H549.57V376H411A71.25,71.25,0,0,0,376,319.48v-.05c.11.07.24.12.36.19l-.36-.72v-290h28.92V347.09Zm192.24-16.91a27,27,0,0,1-12.46,3.15H446.11a27,27,0,0,1-14.58-4.3l81.9-50.71ZM498.35,123.67l-77.28,47.85a27.12,27.12,0,0,1-2.24-10.79V85.47a27.11,27.11,0,0,1,1.91-9.85ZM430.61,63.06a27.15,27.15,0,0,1,15.5-4.86H584.72a27,27,0,0,1,13.44,3.67l-84.73,52.46Zm97.9,60.61,80.71-50A26.94,26.94,0,0,1,612,85.47v75.26a26.92,26.92,0,0,1-3.24,12.63Zm68.67,61.2A27,27,0,0,1,584.72,188H446.11a27,27,0,0,1-14.58-4.3l81.9-50.7ZM226.38,23.77A43.39,43.39,0,0,0,187.68,0H94A28.92,28.92,0,0,0,65.08,28.92V180.78H36.15A36.15,36.15,0,0,0,0,216.93V344.42A71.29,71.29,0,0,1,132.4,376H268.78A71.23,71.23,0,0,1,376,319.43v-.53Zm54.77,215.15H117.58a7.21,7.21,0,0,1-7.23-7.23V51.92a7.2,7.2,0,0,1,7.23-7.23H188.8a7.22,7.22,0,0,1,6.44,3.9l92.34,179.77A7.24,7.24,0,0,1,281.15,238.92ZM339.92,324a56.81,56.81,0,1,0,56.81,56.81A56.82,56.82,0,0,0,339.92,324Zm0,85.22a28.41,28.41,0,1,1,28.4-28.41A28.41,28.41,0,0,1,339.92,409.23Z"/></g></g></svg>