<svg xmlns="http://www.w3.org/2000/svg" xmlns:xlink="http://www.w3.org/1999/xlink" viewBox="0 0 343.93 512.19"><defs><style>.cls-1{fill:#7662bd;}.cls-2{fill:url(#Безымянный_градиент_10);}.cls-3{fill:#a996eb;}.cls-4{fill:url(#Безымянный_градиент_8);}.cls-5{fill:url(#Безымянный_градиент_9);}.cls-6{fill:#dea861;}.cls-7{fill:#cc8241;}.cls-8{fill:url(#Безымянный_градиент_8-2);}.cls-9{fill:url(#Безымянный_градиент_9-2);}.cls-10{fill:url(#Безымянный_градиент_8-3);}.cls-11{fill:url(#Безымянный_градиент_9-3);}.cls-12{fill:url(#Безымянный_градиент_8-4);}.cls-13{fill:url(#Безымянный_градиент_9-4);}.cls-14{fill:url(#Безымянный_градиент_10-2);}</style><linearGradient id="Безымянный_градиент_10" x1="131.7" y1="712.3" x2="178.95" y2="712.3" gradientTransform="translate(0 -278)" gradientUnits="userSpaceOnUse"><stop offset="0" stop-color="#43386b"/><stop offset="1" stop-color="#7662bd"/></linearGradient><linearGradient id="Безымянный_градиент_8" x1="166.14" y1="577.26" x2="185.02" y2="577.26" gradientTransform="translate(0 -278)" gradientUnits="userSpaceOnUse"><stop offset="0" stop-color="#cc8241"/><stop offset="1" stop-color="#dea861"/></linearGradient><linearGradient id="Безымянный_градиент_9" x1="143.96" y1="493.27" x2="214.69" y2="534.1" gradientTransform="translate(0 -278)" gradientUnits="userSpaceOnUse"><stop offset="0" stop-color="#dea861"/><stop offset="1" stop-color="#ebcba0"/></linearGradient><linearGradient id="Безымянный_градиент_8-2" x1="86.87" y1="623.05" x2="105.76" y2="623.05" xlink:href="#Безымянный_градиент_8"/><linearGradient id="Безымянный_градиент_9-2" x1="64.68" y1="539.07" x2="135.41" y2="579.9" xlink:href="#Безымянный_градиент_9"/><linearGradient id="Безымянный_градиент_8-3" x1="234.88" y1="617.62" x2="253.77" y2="617.62" xlink:href="#Безымянный_градиент_8"/><linearGradient id="Безымянный_градиент_9-3" x1="212.69" y1="533.63" x2="283.42" y2="574.46" xlink:href="#Безымянный_градиент_9"/><linearGradient id="Безымянный_градиент_8-4" x1="155.62" y1="663.75" x2="174.5" y2="663.75" xlink:href="#Безымянный_градиент_8"/><linearGradient id="Безымянный_градиент_9-4" x1="133.44" y1="579.74" x2="204.16" y2="620.58" xlink:href="#Безымянный_градиент_9"/><linearGradient id="Безымянный_градиент_10-2" x1="155.81" y1="428.62" x2="174.77" y2="428.62" xlink:href="#Безымянный_градиент_10"/></defs><g id="Слой_2" data-name="Слой 2"><g id="Слой_1-2" data-name="Слой 1"><g id="Слой_2-2" data-name="Слой 2"><g id="Capa_1" data-name="Capa 1"><path class="cls-1" d="M182.23,274.35a3.52,3.52,0,0,1-3.52-3.43l-5-183.36a3.53,3.53,0,1,1,7-.52c0,.11,0,.22,0,.33l5,183.36a3.52,3.52,0,0,1-3.42,3.62h-.11Z"/><path class="cls-2" d="M343.93,402V356.41L0,371.19v45.55a14.44,14.44,0,0,0,7.29,12.62L143.54,508a31.28,31.28,0,0,0,31.31,0l161.79-93.41A14.44,14.44,0,0,0,343.93,402Z"/><path class="cls-3" d="M7.29,358.53l161.79-93.41a31.34,31.34,0,0,1,31.32,0l136.24,78.66a14.58,14.58,0,0,1,0,25.25L174.85,462.44a31.28,31.28,0,0,1-31.31,0L7.29,383.78a14.58,14.58,0,0,1,0-25.25Z"/><path class="cls-1" d="M12.4,367.31a3.54,3.54,0,0,1-3.22-4.94l96.67-221.08a3.53,3.53,0,0,1,6.46,2.83L15.64,365.19a3.55,3.55,0,0,1-3.24,2.11Z"/><path class="cls-4" d="M251,320.08V234.42l-137.49,5.9V326a5.76,5.76,0,0,0,2.91,5l54.47,31.45a12.55,12.55,0,0,0,12.52,0l64.67-37.34A5.78,5.78,0,0,0,251,320.08Z"/><path class="cls-5" d="M116.4,235.27l64.68-37.34a12.5,12.5,0,0,1,12.52,0l54.46,31.44a5.83,5.83,0,0,1,0,10.1l-64.67,37.34a12.55,12.55,0,0,1-12.52,0L116.4,245.36a5.83,5.83,0,0,1,0-10.09Z"/><path class="cls-6" d="M230.83,219.46l-79.74,46-18.42-10.64,79.73-46Z"/><path class="cls-7" d="M219.89,213.19l-79.81,46,3.61,2.09,79.81-46Z"/><path class="cls-6" d="M151.09,265.51v15.21l-18.42-10.63V254.87Z"/><path class="cls-8" d="M171.71,365.86V280.19l-137.48,5.9v85.66a5.8,5.8,0,0,0,2.91,5.05L91.6,408.24a12.5,12.5,0,0,0,12.52,0L168.8,370.9a5.76,5.76,0,0,0,2.91-5Z"/><path class="cls-9" d="M37.14,281.05l64.68-37.34a12.48,12.48,0,0,1,12.51,0l54.47,31.48a5.84,5.84,0,0,1,0,10.09l-64.68,37.34a12.5,12.5,0,0,1-12.52,0L37.14,291.19a5.83,5.83,0,0,1,0-10.14Z"/><path class="cls-6" d="M58.11,268.94,127.58,309,146,298.41,76.54,258.3Z"/><path class="cls-7" d="M69.12,262.58l69.47,40.1L135,304.76l-69.47-40.1Z"/><path class="cls-7" d="M127.58,309v15.22L146,313.62V298.41Z"/><path class="cls-10" d="M319.72,360.42V274.76l-137.49,5.89v85.66a5.76,5.76,0,0,0,2.92,5.05l54.46,31.44a12.5,12.5,0,0,0,12.52,0l64.68-37.34A5.77,5.77,0,0,0,319.72,360.42Z"/><path class="cls-11" d="M185.15,275.61l64.67-37.34a12.5,12.5,0,0,1,12.52,0l54.46,31.44a5.8,5.8,0,0,1,2.14,7.94,5.74,5.74,0,0,1-2.14,2.15l-64.67,37.39a12.5,12.5,0,0,1-12.52,0l-54.46-31.44a5.82,5.82,0,0,1,0-10.09Z"/><path class="cls-6" d="M206.12,263.5l69.46,40.1L294,293l-69.47-40.1Z"/><path class="cls-7" d="M217.13,257.13l69.47,40.11-3.6,2.08-69.48-40.13Z"/><path class="cls-7" d="M275.58,303.6v15.22L294,308.19V293Z"/><path class="cls-12" d="M240.45,406.55V320.89L103,326.79v85.66a5.8,5.8,0,0,0,2.91,5.05l54.47,31.44a12.5,12.5,0,0,0,12.52,0l64.67-37.34a5.79,5.79,0,0,0,2.92-5.05Z"/><path class="cls-13" d="M105.88,321.74l64.68-37.34a12.55,12.55,0,0,1,12.52,0l54.46,31.45a5.8,5.8,0,0,1,2.14,7.94,5.74,5.74,0,0,1-2.14,2.15l-64.67,37.34a12.5,12.5,0,0,1-12.52,0l-54.47-31.44a5.83,5.83,0,0,1,0-10.1Z"/><path class="cls-6" d="M220.3,305.94l-79.73,46L122.14,341.3l79.74-46Z"/><path class="cls-7" d="M209.37,299.63l-79.81,46,3.61,2.08,79.81-46Z"/><path class="cls-6" d="M140.57,352v15.21l-18.43-10.64V341.34Z"/><path class="cls-1" d="M160.21,456.54h-.12a3.52,3.52,0,0,1-3.4-3.64h0l11.75-340.77a3.53,3.53,0,0,1,7.05.24L163.74,453.13A3.53,3.53,0,0,1,160.21,456.54Z"/><path class="cls-1" d="M326.22,360.69a3.53,3.53,0,0,1-3.25-2.15l-94.15-222.1a3.52,3.52,0,1,1,6.49-2.75l94.16,222.1a3.53,3.53,0,0,1-1.88,4.62,3.61,3.61,0,0,1-1.37.28Z"/><path class="cls-14" d="M241,137.64V119.36l-138,5.92v18.28a5.77,5.77,0,0,0,2.92,5.06l54.64,31.57a12.55,12.55,0,0,0,12.57,0L238,142.7a5.77,5.77,0,0,0,2.92-5.06Z"/><path class="cls-3" d="M105.89,120.19l64.92-37.48a12.6,12.6,0,0,1,12.57,0L238,114.3a5.85,5.85,0,0,1,0,10.13L173.09,161.9a12.55,12.55,0,0,1-12.57,0l-54.67-31.56a5.86,5.86,0,0,1,0-10.13Z"/><path class="cls-1" d="M172,125.85a3.53,3.53,0,0,1-3.53-3.53V3.72a3.53,3.53,0,0,1,7.05-.38,2.41,2.41,0,0,1,0,.38v118.6A3.53,3.53,0,0,1,172,125.85Z"/></g></g></g></g></svg>