<svg xmlns="http://www.w3.org/2000/svg" xmlns:xlink="http://www.w3.org/1999/xlink" viewBox="0 0 343.93 512"><defs><style>.cls-1{fill:#7662bd;}.cls-2{fill:url(#Безымянный_градиент_10);}.cls-3{fill:#a996eb;}.cls-4{fill:url(#Безымянный_градиент_8);}.cls-5{fill:url(#Безымянный_градиент_9);}.cls-6{fill:#dea861;}.cls-7{fill:#cc8241;}.cls-8{fill:url(#Безымянный_градиент_8-2);}.cls-9{fill:url(#Безымянный_градиент_9-2);}.cls-10{fill:url(#Безымянный_градиент_8-3);}.cls-11{fill:url(#Безымянный_градиент_9-3);}.cls-12{fill:url(#Безымянный_градиент_8-4);}.cls-13{fill:url(#Безымянный_градиент_9-4);}.cls-14{fill:url(#Безымянный_градиент_10-2);}</style><linearGradient id="Безымянный_градиент_10" x1="131.7" y1="79.89" x2="178.95" y2="79.89" gradientTransform="matrix(1, 0, 0, -1, 0, 514)" gradientUnits="userSpaceOnUse"><stop offset="0" stop-color="#43386b"/><stop offset="1" stop-color="#7662bd"/></linearGradient><linearGradient id="Безымянный_градиент_8" x1="166.14" y1="214.91" x2="185.02" y2="214.91" gradientTransform="matrix(1, 0, 0, -1, 0, 514)" gradientUnits="userSpaceOnUse"><stop offset="0" stop-color="#cc8241"/><stop offset="1" stop-color="#dea861"/></linearGradient><linearGradient id="Безымянный_градиент_9" x1="143.96" y1="298.92" x2="214.69" y2="258.09" gradientTransform="matrix(1, 0, 0, -1, 0, 514)" gradientUnits="userSpaceOnUse"><stop offset="0" stop-color="#dea861"/><stop offset="1" stop-color="#ebcba0"/></linearGradient><linearGradient id="Безымянный_градиент_8-2" x1="86.87" y1="169.13" x2="105.76" y2="169.13" xlink:href="#Безымянный_градиент_8"/><linearGradient id="Безымянный_градиент_9-2" x1="64.69" y1="253.14" x2="135.42" y2="212.31" xlink:href="#Безымянный_градиент_9"/><linearGradient id="Безымянный_градиент_8-3" x1="234.88" y1="174.57" x2="253.77" y2="174.57" xlink:href="#Безымянный_градиент_8"/><linearGradient id="Безымянный_градиент_9-3" x1="212.7" y1="258.58" x2="283.43" y2="217.75" xlink:href="#Безымянный_градиент_9"/><linearGradient id="Безымянный_градиент_8-4" x1="155.62" y1="128.43" x2="174.5" y2="128.43" xlink:href="#Безымянный_градиент_8"/><linearGradient id="Безымянный_градиент_9-4" x1="133.44" y1="212.45" x2="204.16" y2="171.61" xlink:href="#Безымянный_градиент_9"/><linearGradient id="Безымянный_градиент_10-2" x1="155.81" y1="363.58" x2="174.77" y2="363.58" xlink:href="#Безымянный_градиент_10"/></defs><title>cargo</title><g id="Слой_2" data-name="Слой 2"><g id="Capa_1" data-name="Capa 1"><path class="cls-1" d="M182.23,274.16a3.52,3.52,0,0,1-3.52-3.43l-5-183.36a3.53,3.53,0,1,1,7.05-.19l5,183.36a3.52,3.52,0,0,1-3.43,3.62Z"/><path class="cls-2" d="M343.93,401.77V356.22L0,371v45.55a14.43,14.43,0,0,0,7.29,12.62L143.54,507.8a31.28,31.28,0,0,0,31.31,0l161.79-93.41A14.43,14.43,0,0,0,343.93,401.77Z"/><path class="cls-3" d="M7.29,358.34l161.79-93.41a31.34,31.34,0,0,1,31.32,0l136.24,78.66a14.58,14.58,0,0,1,0,25.25L174.85,462.25a31.28,31.28,0,0,1-31.31,0L7.29,383.59a14.58,14.58,0,0,1,0-25.25Z"/><path class="cls-1" d="M12.4,367.12a3.53,3.53,0,0,1-3.22-4.94L105.85,141.1a3.53,3.53,0,0,1,6.46,2.83L15.64,365a3.54,3.54,0,0,1-3.24,2.11Z"/><path class="cls-4" d="M251,319.89V234.23l-137.49,5.9v85.66a5.77,5.77,0,0,0,2.91,5l54.47,31.45a12.55,12.55,0,0,0,12.52,0l64.67-37.34A5.78,5.78,0,0,0,251,319.89Z"/><path class="cls-5" d="M116.4,235.08l64.68-37.34a12.5,12.5,0,0,1,12.52,0l54.46,31.44a5.83,5.83,0,0,1,0,10.1l-64.67,37.34a12.55,12.55,0,0,1-12.52,0L116.4,245.17a5.83,5.83,0,0,1,0-10.09Z"/><path class="cls-6" d="M230.83,219.27l-79.74,46-18.42-10.64,79.73-46Z"/><path class="cls-7" d="M219.89,213l-79.81,46,3.61,2.09,79.81-46Z"/><path class="cls-6" d="M151.09,265.32v15.21L132.67,269.9V254.68Z"/><path class="cls-8" d="M171.71,365.67V280L34.23,285.9v85.66a5.78,5.78,0,0,0,2.91,5.05L91.6,408.05a12.5,12.5,0,0,0,12.52,0l64.68-37.34a5.77,5.77,0,0,0,2.91-5Z"/><path class="cls-9" d="M37.14,280.86l64.68-37.34a12.48,12.48,0,0,1,12.51,0L168.8,275a5.83,5.83,0,0,1,0,10.09l-64.68,37.34a12.5,12.5,0,0,1-12.52,0L37.14,291A5.83,5.83,0,0,1,37.14,280.86Z"/><path class="cls-6" d="M58.11,268.75l69.47,40.1L146,298.22,76.54,258.11Z"/><path class="cls-7" d="M69.12,262.39l69.47,40.1L135,304.57l-69.47-40.1Z"/><path class="cls-7" d="M127.58,308.85v15.22L146,313.43V298.22Z"/><path class="cls-10" d="M319.72,360.23V274.57l-137.49,5.89v85.66a5.77,5.77,0,0,0,2.92,5.05l54.46,31.44a12.5,12.5,0,0,0,12.52,0l64.68-37.34A5.77,5.77,0,0,0,319.72,360.23Z"/><path class="cls-11" d="M185.15,275.42l64.67-37.34a12.5,12.5,0,0,1,12.52,0l54.46,31.44a5.82,5.82,0,0,1,0,10.09L252.13,317a12.5,12.5,0,0,1-12.52,0l-54.46-31.44a5.82,5.82,0,0,1,0-10.09Z"/><path class="cls-6" d="M206.12,263.31l69.46,40.1L294,292.77l-69.47-40.1Z"/><path class="cls-7" d="M217.13,256.94l69.47,40.11L283,299.13,213.52,259Z"/><path class="cls-7" d="M275.58,303.41v15.22L294,308V292.77Z"/><path class="cls-12" d="M240.45,406.36V320.7L103,326.6v85.66a5.78,5.78,0,0,0,2.91,5.05l54.47,31.44a12.5,12.5,0,0,0,12.52,0l64.67-37.34a5.78,5.78,0,0,0,2.92-5.05Z"/><path class="cls-13" d="M105.88,321.55l64.68-37.34a12.55,12.55,0,0,1,12.52,0l54.46,31.45a5.82,5.82,0,0,1,0,10.09l-64.67,37.34a12.5,12.5,0,0,1-12.52,0l-54.47-31.44a5.84,5.84,0,0,1,0-10.1Z"/><path class="cls-6" d="M220.3,305.75l-79.73,46-18.43-10.64,79.74-46Z"/><path class="cls-7" d="M209.37,299.44l-79.81,46,3.61,2.08,79.81-46Z"/><path class="cls-6" d="M140.57,351.79V367l-18.43-10.64V341.15Z"/><path class="cls-1" d="M160.21,456.35h-.12a3.52,3.52,0,0,1-3.4-3.65l11.75-340.77a3.53,3.53,0,0,1,7.05.24L163.74,452.94a3.53,3.53,0,0,1-3.53,3.41Z"/><path class="cls-1" d="M326.22,360.5a3.52,3.52,0,0,1-3.25-2.15l-94.15-222.1a3.52,3.52,0,1,1,6.49-2.75l94.16,222.1a3.53,3.53,0,0,1-3.25,4.9Z"/><path class="cls-14" d="M241,137.45V119.17l-138,5.92v18.28a5.77,5.77,0,0,0,2.92,5.06L160.56,180a12.55,12.55,0,0,0,12.57,0L238,142.51a5.77,5.77,0,0,0,2.92-5.06Z"/><path class="cls-3" d="M105.89,120l64.92-37.48a12.6,12.6,0,0,1,12.57,0L238,114.11a5.85,5.85,0,0,1,0,10.13l-64.91,37.47a12.55,12.55,0,0,1-12.57,0l-54.67-31.56a5.86,5.86,0,0,1,0-10.13Z"/><path class="cls-1" d="M172,125.66a3.53,3.53,0,0,1-3.53-3.53V3.53a3.53,3.53,0,1,1,7.05,0v118.6A3.53,3.53,0,0,1,172,125.66Z"/></g></g></svg>