<svg xmlns="http://www.w3.org/2000/svg" xmlns:xlink="http://www.w3.org/1999/xlink" viewBox="0 0 338.8 512"><defs><style>.cls-1{fill:url(#Безымянный_градиент);}.cls-2{fill:#594a8e;}.cls-3{fill:url(#Безымянный_градиент_3);}.cls-4{fill:url(#Безымянный_градиент_3-2);}.cls-5{fill:#06daae;}</style><linearGradient id="Безымянный_градиент" x1="123.8" y1="-28.36" x2="123.8" y2="359.48" gradientTransform="matrix(1, 0, 0, -1, 0, 514)" gradientUnits="userSpaceOnUse"><stop offset="0" stop-color="#d7d1eb"/><stop offset="1" stop-color="#e9e5f6"/></linearGradient><linearGradient id="Безымянный_градиент_3" x1="278.97" y1="279.22" x2="290.48" y2="299.17" gradientTransform="matrix(1, 0, 0, -1, 0, 514)" gradientUnits="userSpaceOnUse"><stop offset="0" stop-color="#236568"/><stop offset="1" stop-color="#2f878a"/></linearGradient><linearGradient id="Безымянный_градиент_3-2" x1="199.39" y1="141.39" x2="208.65" y2="157.43" xlink:href="#Безымянный_градиент_3"/></defs><title>contact</title><g id="Слой_2" data-name="Слой 2"><g id="Capa_1" data-name="Capa 1"><path class="cls-1" d="M0,143,247.59,0V369.05L0,512Z"/><path class="cls-2" d="M75,152.57l97.53-56.31v14.12L75,166.69Z"/><path class="cls-2" d="M39,224.33,208.56,126.1v14.13L39,238.45Z"/><path class="cls-2" d="M39,256.17l169.53-98.23v14.12L39,270.29Z"/><path class="cls-2" d="M39,288l169.53-98.23V203.9L39,302.13Z"/><path class="cls-2" d="M39,347.43,208.56,249.2v14.13L39,361.56Z"/><path class="cls-2" d="M39,411.1l169.53-98.22V327L39,425.23Z"/><path class="cls-2" d="M39,379.27,208.56,281v14.13L39,393.39Z"/><path class="cls-3" d="M334.18,238.1a11.62,11.62,0,0,0-2.58-1.46l-35.51-20.17a11.64,11.64,0,0,0-17.33,3.89l-66.21,127.5-.71-.53a20,20,0,0,0-6.79-3.32l0,0L173.76,325.7a20.11,20.11,0,0,0-5.45-2.91l-.07,0v0a20,20,0,0,0-18.64,34.87l60.25,45.55L248,424.82l89.52-172a11.63,11.63,0,0,0-3.29-14.68Z"/><path class="cls-4" d="M211.84,347.33a20,20,0,0,0-6.79-3.32l0,0L173.76,325.7a20.11,20.11,0,0,0-5.45-2.91l-.07,0h0a20,20,0,0,0-18.64,34.88l60.25,45.55L248,424.82Z"/><path class="cls-5" d="M248,424.82l-60.26-45.55a20,20,0,0,1,24.15-31.94L248,374.63,316.85,242a11.64,11.64,0,1,1,20.62,10.8Z"/></g></g></svg>