<svg xmlns="http://www.w3.org/2000/svg" xmlns:xlink="http://www.w3.org/1999/xlink" viewBox="0 0 368.34 512"><defs><style>.cls-1{fill:url(#Безымянный_градиент);}.cls-2{fill:url(#Безымянный_градиент_2);}.cls-3{fill:#00395e;}.cls-4{fill:#fff;}.cls-5{fill:#f7e041;}.cls-6{fill:#7662bd;}.cls-7{fill:#e37a34;}</style><linearGradient id="Безымянный_градиент" x1="91.05" y1="248.45" x2="118.5" y2="296" gradientTransform="matrix(1, 0, 0, -1, 0, 514)" gradientUnits="userSpaceOnUse"><stop offset="0" stop-color="#0072bc"/><stop offset="1" stop-color="#79d3fe"/></linearGradient><linearGradient id="Безымянный_градиент_2" x1="195.55" y1="-31.02" x2="195.55" y2="522.61" gradientTransform="matrix(1, 0, 0, -1, 0, 514)" gradientUnits="userSpaceOnUse"><stop offset="0" stop-color="#0197f8"/><stop offset="1" stop-color="#59acf9"/></linearGradient></defs><title>debit</title><g id="Слой_2" data-name="Слой 2"><g id="Capa_1" data-name="Capa 1"><path class="cls-1" d="M361.56,15,338.66,1.77c-3.83-2.51-9-2.44-14.59.81L21.51,177.26C9.63,184.12,0,202.52,0,218.36V480c0,9.36,3.36,15.73,8.56,18l20.72,12Z"/><path class="cls-2" d="M346.83,334.74,44.27,509.42c-11.88,6.86-21.51-.42-21.51-16.27V231.49c0-15.85,9.63-34.25,21.51-41.11L346.83,15.7c11.88-6.86,21.51.42,21.51,16.27V293.63C368.34,309.48,358.71,327.88,346.83,334.74Z"/><path class="cls-3" d="M22.76,463.06,368.34,263.54V204.4L22.76,403.92Z"/><path class="cls-4" d="M125.45,317.27l-65.4,38.19V326.74l65.4-38.18Z"/><path class="cls-4" d="M173.06,289.13l-32.7,19.09V279.51l32.7-19.1Z"/><path class="cls-5" d="M327.21,143.23l-54,31.52a5.9,5.9,0,0,1-8.88-5.1V126.83a15.18,15.18,0,0,1,7.53-13.11l54-31.53a5.91,5.91,0,0,1,8.89,5.1v42.82A15.21,15.21,0,0,1,327.21,143.23Z"/><ellipse class="cls-6" cx="165.13" cy="208.48" rx="42.27" ry="23.91" transform="translate(-91.4 278.67) rotate(-66.92)"/><ellipse class="cls-7" cx="93.25" cy="252.64" rx="42.27" ry="23.91" transform="translate(-175.73 239.4) rotate(-66.92)"/><path class="cls-7" d="M274.22,112.39v61.83l6.95-4.06V108.33Z"/><path class="cls-7" d="M274.22,130.71l60.52-34.93v6.58L274.22,137.3Z"/><path class="cls-7" d="M274.22,151.48l60.52-34.94v6.58l-60.52,34.94Z"/></g></g></svg>