<svg xmlns="http://www.w3.org/2000/svg" xmlns:xlink="http://www.w3.org/1999/xlink" viewBox="0 0 105.32 107.92"><defs><style>.cls-1{fill:url(#Безымянный_градиент);}.cls-2{fill:url(#Безымянный_градиент_2);}.cls-3{fill:#dea861;}.cls-4{fill:#cc8241;}.cls-5{fill:url(#Безымянный_градиент_4);}.cls-6{fill:url(#Безымянный_градиент_4-2);}.cls-7{fill:#06daae;}</style><linearGradient id="Безымянный_градиент" x1="33.85" y1="2974.09" x2="45.99" y2="2974.09" gradientTransform="translate(0 -2907.86)" gradientUnits="userSpaceOnUse"><stop offset="0" stop-color="#cc8241"/><stop offset="1" stop-color="#dea861"/></linearGradient><linearGradient id="Безымянный_градиент_2" x1="19.58" y1="2920.09" x2="65.05" y2="2946.34" gradientTransform="translate(0 -2907.86)" gradientUnits="userSpaceOnUse"><stop offset="0" stop-color="#dea861"/><stop offset="1" stop-color="#ebcba0"/></linearGradient><linearGradient id="Безымянный_градиент_4" x1="90.94" y1="2948.86" x2="93.71" y2="2944.07" gradientTransform="translate(0 -2907.86)" gradientUnits="userSpaceOnUse"><stop offset="0" stop-color="#236568"/><stop offset="1" stop-color="#2f878a"/></linearGradient><linearGradient id="Безымянный_градиент_4-2" x1="71.84" y1="2981.9" x2="74.06" y2="2978.07" xlink:href="#Безымянный_градиент_4"/></defs><title>gift-check</title><g id="Слой_2" data-name="Слой 2"><g id="Слой_1-2" data-name="Слой 1"><g id="Слой_1-2-2" data-name="Слой 1-2"><path class="cls-1" d="M88.39,79.6V24.53L0,28.32V83.39a3.7,3.7,0,0,0,1.87,3.24l35,20.22a8,8,0,0,0,8,0l41.58-24A3.73,3.73,0,0,0,88.39,79.6Z"/><path class="cls-2" d="M1.87,25.07l41.58-24a8,8,0,0,1,8,0l35,20.21a3.74,3.74,0,0,1,0,6.49l-41.57,24a8,8,0,0,1-8,0l-35-20.22a3.75,3.75,0,0,1,0-6.49Z"/><path class="cls-3" d="M15.36,17.29,60,43.07l11.85-6.84L27.2,10.45Z"/><path class="cls-4" d="M22.44,13.2,67.09,39l-2.32,1.34L20.11,14.54Z"/><path class="cls-4" d="M60,43.07v9.79L71.86,46V36.23Z"/><path class="cls-5" d="M104.16,41.78a2.91,2.91,0,0,0-.62-.35L95,36.59a2.79,2.79,0,0,0-3.9.53,3.34,3.34,0,0,0-.25.4L75,68.11,74.81,68a4.77,4.77,0,0,0-1.63-.8h0l-7.5-4.38a4.73,4.73,0,0,0-1.31-.7h0a4.8,4.8,0,0,0-4.48,8.36L74.34,81.38l9.13,5.19L105,45.3a2.79,2.79,0,0,0-.79-3.52Z"/><path class="cls-6" d="M74.81,68a4.77,4.77,0,0,0-1.63-.8h0l-7.5-4.38a4.73,4.73,0,0,0-1.31-.7h0a4.8,4.8,0,0,0-4.48,8.36L74.34,81.38l9.13,5.19Z"/><path class="cls-7" d="M83.47,86.57,69,75.64A4.8,4.8,0,0,1,74.81,68l8.66,6.55L100,42.71a2.82,2.82,0,0,1,5,2.59h0Z"/></g></g></g></svg>