<svg xmlns="http://www.w3.org/2000/svg" xmlns:xlink="http://www.w3.org/1999/xlink" viewBox="0 0 413.19 512"><defs><style>.cls-1{fill:url(#Безымянный_градиент);}.cls-2{fill:url(#Безымянный_градиент_2);}.cls-3{fill:#ff4757;}.cls-4{fill:#ab2c37;}.cls-5{fill:url(#Безымянный_градиент_5);}.cls-6{fill:url(#Безымянный_градиент_5-2);}.cls-7{fill:url(#Безымянный_градиент_5-3);}</style><linearGradient id="Безымянный_градиент" x1="158.22" y1="196.93" x2="214.98" y2="196.93" gradientTransform="matrix(1, 0, 0, -1, 0, 514)" gradientUnits="userSpaceOnUse"><stop offset="0" stop-color="#cc8241"/><stop offset="1" stop-color="#dea861"/></linearGradient><linearGradient id="Безымянный_градиент_2" x1="91.56" y1="449.41" x2="304.12" y2="326.69" gradientTransform="matrix(1, 0, 0, -1, 0, 514)" gradientUnits="userSpaceOnUse"><stop offset="0" stop-color="#dea861"/><stop offset="1" stop-color="#ebcba0"/></linearGradient><linearGradient id="Безымянный_градиент_5" x1="272.52" y1="419.83" x2="308.81" y2="482.68" gradientTransform="matrix(1, 0, 0, -1, 0, 514)" gradientUnits="userSpaceOnUse"><stop offset="0" stop-color="#ab2c37"/><stop offset="1" stop-color="#ff7a85"/></linearGradient><linearGradient id="Безымянный_градиент_5-2" x1="227.58" y1="379.63" x2="206.48" y2="416.17" xlink:href="#Безымянный_градиент_5"/><linearGradient id="Безымянный_градиент_5-3" x1="199.45" y1="364.21" x2="71.53" y2="332.43" xlink:href="#Безымянный_градиент_5"/></defs><title>gift</title><g id="Слой_2" data-name="Слой 2"><g id="Capa_1" data-name="Capa 1"><path class="cls-1" d="M413.19,379.57V122.14L0,139.86V397.29a17.35,17.35,0,0,0,8.76,15.17L172.44,507a37.62,37.62,0,0,0,37.62,0L404.43,394.74A17.35,17.35,0,0,0,413.19,379.57Z"/><path class="cls-2" d="M8.76,124.69,203.13,12.47a37.62,37.62,0,0,1,37.62,0L404.43,107a17.52,17.52,0,0,1,0,30.34L210.06,249.52a37.57,37.57,0,0,1-37.62,0L8.76,155a17.51,17.51,0,0,1,0-30.33Z"/><path class="cls-3" d="M71.78,88.3,280.54,208.83l55.38-32L127.16,56.33Z"/><path class="cls-4" d="M280.54,208.83V465.92l55.38-32V176.86Z"/><path class="cls-3" d="M357.73,79.94,118.08,218.43l-55.37-32L302.35,48Z"/><path class="cls-4" d="M118.08,218.43V475.51l-55.37-32V186.46Z"/><path class="cls-5" d="M227.87,106.29A14,14,0,0,1,225.47,93c7.52-22.7,28.84-80.8,64.35-91.56,33.18-10.06,74.94,33,48.48,74-21.07,32.59-71,42.2-90.52,44.76A14,14,0,0,1,235,115.11Z"/><path class="cls-4" d="M314.76,48.22c15.64-8.56,23.88,1.19,18.54,17S300.64,96,284.41,104s-38.51,10.81-38.51,10.81,53.23-58,68.86-66.55Z"/><path class="cls-6" d="M248.4,71.21c-9.31-1.18-17.26.35-23.65,3.62h0a30.59,30.59,0,0,0-2.85,1.64L180.5,100.4v0c-7.29,3.67-13.8,10.31-18,20.4-4.3,33.61,26.78,49.91,49,37.06L256,132.2C278.23,119.36,279.65,84.29,248.4,71.21Z"/><path class="cls-7" d="M187.09,123.34a14.06,14.06,0,0,0-11.75-6.58c-23.9-.27-85.78,1-107.51,31.06-20.3,28.1,6.86,81.62,54.17,69.91,37.67-9.32,63-53.44,71.77-71a14.06,14.06,0,0,0-.65-13.73Z"/><path class="cls-4" d="M103.91,186.62c-13.18,12-6.64,23,10,23s39.77-20.86,52.56-33.62,22.75-32.9,22.75-32.9-72.16,31.46-85.34,43.47Z"/></g></g></svg>