<svg xmlns="http://www.w3.org/2000/svg" xmlns:xlink="http://www.w3.org/1999/xlink" viewBox="0 0 71.66 111.41"><defs><style>.cls-1{fill:url(#Безымянный_градиент);}.cls-2{fill:#7662bd;}.cls-3{fill:#fff;}.cls-4{fill:#594a8e;}.cls-5{fill:#dea861;}.cls-6{fill:#d7d1eb;}.cls-7{fill:#f7e041;}.cls-8{fill:#cc8241;}.cls-9{fill:#8b451c;}.cls-10{fill:url(#Безымянный_градиент_2);}.cls-11{fill:url(#Безымянный_градиент_3);}</style><linearGradient id="Безымянный_градиент" x1="20.59" y1="2970.87" x2="24.86" y2="2963.46" gradientTransform="translate(0 -2933.15)" gradientUnits="userSpaceOnUse"><stop offset="0" stop-color="#43386b"/><stop offset="1" stop-color="#a996eb"/></linearGradient><linearGradient id="Безымянный_градиент_2" x1="47.46" y1="3022.09" x2="52.84" y2="3022.09" gradientTransform="translate(0 -2933.15)" gradientUnits="userSpaceOnUse"><stop offset="0" stop-color="#cc8241"/><stop offset="1" stop-color="#dea861"/></linearGradient><linearGradient id="Безымянный_градиент_3" x1="41.12" y1="2998.09" x2="61.29" y2="3009.74" gradientTransform="translate(0 -2933.15)" gradientUnits="userSpaceOnUse"><stop offset="0" stop-color="#dea861"/><stop offset="1" stop-color="#ebcba0"/></linearGradient></defs><title>mob-gift</title><g id="Слой_2" data-name="Слой 2"><g id="Слой_1-2" data-name="Слой 1"><g id="Слой_1-2-2" data-name="Слой 1-2"><path class="cls-1" d="M43.56,3.49,37.86.24h0A2.15,2.15,0,0,0,35.62.4L3.39,19A8.08,8.08,0,0,0,0,25.45v79.81A2.85,2.85,0,0,0,1.31,108h0L7,111.27Z"/><path class="cls-2" d="M41.29,92.42,9,111c-1.86,1.08-3.37-.06-3.37-2.54V28.68A8.08,8.08,0,0,1,9,22.24L41.29,3.63c1.86-1.07,3.37.07,3.37,2.55V86A8,8,0,0,1,41.29,92.42Z"/><path class="cls-3" d="M9.36,27.56,41.29,9.12V82L9.36,100.41Z"/><path class="cls-4" d="M24.56,94.32l6.09-3.52v6.11l-6.09,3.52Z"/><path class="cls-5" d="M16,41.44,35.38,30.25V49.73L16,60.92Z"/><path class="cls-6" d="M18.93,64.16l13.51-7.8V60.2L18.93,68Z"/><path class="cls-7" d="M21,73.4,30.37,68v5.37L21,78.76Z"/><path class="cls-8" d="M23.76,37l3.84-2.22v6.08l-3.84,2.22Z"/><path class="cls-9" d="M17.38,52.63l6.38-3.69v1.21l-6.38,3.68Z"/><path class="cls-9" d="M17.38,54.77,22.23,52v.91L17.38,55.7Z"/><path class="cls-9" d="M17.38,56.43l4.85-2.8v.91l-4.85,2.8Z"/><path class="cls-10" d="M71.66,94.83V70.39L32.44,72.08V96.51A1.61,1.61,0,0,0,33.27,98l15.53,9a3.58,3.58,0,0,0,3.58,0L70.83,96.27A1.63,1.63,0,0,0,71.66,94.83Z"/><path class="cls-11" d="M33.27,70.64,51.72,60a3.56,3.56,0,0,1,3.57,0l15.54,9a1.66,1.66,0,0,1,.6,2.27,1.57,1.57,0,0,1-.6.6L52.38,82.49a3.63,3.63,0,0,1-3.58,0l-15.53-9a1.64,1.64,0,0,1-.61-2.26,1.58,1.58,0,0,1,.61-.62Z"/><path class="cls-5" d="M39.25,67.18,59.07,78.62l5.25-3L44.51,64.15Z"/><path class="cls-8" d="M42.39,65.37,62.21,76.81l-1,.59L41.36,66Z"/><path class="cls-8" d="M59.07,78.62V83l5.25-3V75.59Z"/></g></g></g></svg>