<svg xmlns="http://www.w3.org/2000/svg" xmlns:xlink="http://www.w3.org/1999/xlink" viewBox="0 0 63.76 110.36"><defs><style>.cls-1{fill:url(#Безымянный_градиент_4);}.cls-2{fill:#ba5c25;}.cls-3{fill:#06daae;}.cls-4{fill:url(#Безымянный_градиент_2);}.cls-5{fill:#2f878a;}.cls-6{fill:url(#Безымянный_градиент_3);}.cls-7{fill:url(#Безымянный_градиент_4-2);}.cls-8{fill:url(#Безымянный_градиент_5);}.cls-9{fill:#5d3645;}.cls-10{fill:#dea861;}.cls-11{fill:url(#Безымянный_градиент_8);}.cls-12{fill:#ffc538;}.cls-13{fill:url(#Безымянный_градиент_8-2);}.cls-14{fill:url(#Безымянный_градиент_8-3);}</style><linearGradient id="Безымянный_градиент_4" x1="5.35" y1="2990.94" x2="15.27" y2="2990.94" gradientTransform="translate(0 -2920.95)" gradientUnits="userSpaceOnUse"><stop offset="0" stop-color="#ba5c25"/><stop offset="1" stop-color="#cc8241"/></linearGradient><linearGradient id="Безымянный_градиент_2" x1="29.06" y1="2966.56" x2="35.48" y2="2956.08" gradientTransform="translate(0 -2920.95)" gradientUnits="userSpaceOnUse"><stop offset="0" stop-color="#236568"/><stop offset="1" stop-color="#2f878a"/></linearGradient><linearGradient id="Безымянный_градиент_3" x1="53.06" y1="2988.33" x2="57.75" y2="2980.2" gradientTransform="translate(0 -2920.95)" gradientUnits="userSpaceOnUse"><stop offset="0" stop-color="#ba5c25"/><stop offset="0.34" stop-color="#cc8241"/><stop offset="1" stop-color="#dea861"/></linearGradient><linearGradient id="Безымянный_градиент_4-2" x1="51.39" y1="2980.52" x2="63.76" y2="2980.52" xlink:href="#Безымянный_градиент_4"/><linearGradient id="Безымянный_градиент_5" x1="57.38" y1="2982.76" x2="59.23" y2="2979.56" gradientTransform="translate(0 -2920.95)" gradientUnits="userSpaceOnUse"><stop offset="0" stop-color="#3e242e"/><stop offset="1" stop-color="#7c485c"/></linearGradient><linearGradient id="Безымянный_градиент_8" x1="17.11" y1="2954.85" x2="23.16" y2="2944.37" gradientTransform="translate(0 -2920.95)" gradientUnits="userSpaceOnUse"><stop offset="0" stop-color="#cc8241"/><stop offset="1" stop-color="#ffc538"/></linearGradient><linearGradient id="Безымянный_градиент_8-2" x1="-3389.95" y1="6241.01" x2="-3432.28" y2="6256.28" gradientTransform="translate(-3708.7 -6057.72) rotate(-60.11)" xlink:href="#Безымянный_градиент_8"/><linearGradient id="Безымянный_градиент_8-3" x1="25.69" y1="2950.04" x2="21.46" y2="2963.07" xlink:href="#Безымянный_градиент_8"/></defs><title>money</title><g id="Слой_2" data-name="Слой 2"><g id="Слой_1-2" data-name="Слой 1"><g id="Слой_1-2-2" data-name="Слой 1-2"><path class="cls-1" d="M59.51,36.81h.07L56.32,34.9h0a2.23,2.23,0,0,0-2.5,0l-2.3,1.33V33.12a2.26,2.26,0,0,0-1.71-1.72l-3-1.51A2.66,2.66,0,0,0,44.3,30L13.75,47.62,2.19,54.29A4.34,4.34,0,0,0,0,58.14v46.69a4.32,4.32,0,0,0,2.19,3.92,12,12,0,0,0,12,0l43.28-25h0a7.18,7.18,0,0,0,3.16-5.94V38.71a2.15,2.15,0,0,0-1.16-1.9Z"/><path class="cls-2" d="M7.11,60.3l3.66-7L5.4,56.42a1.85,1.85,0,0,0,0,3.23A9.27,9.27,0,0,0,7.11,60.3Z"/><path class="cls-3" d="M45.36,21.21c1.16.87,1.16,3.38,0,5.59s-3,3.29-4.19,2.42-1.16-3.38,0-5.59S44.21,20.33,45.36,21.21Z"/><path class="cls-4" d="M62.15,16.64,41.52,1.05,39.88.13C39.37-.25,38.56.22,38,1.19L7.11,60.3a5.71,5.71,0,0,0,4-.65L53.82,35l8.33-15.9C62.65,18.12,62.65,17,62.15,16.64Z"/><path class="cls-3" d="M62.15,16.64,41.52,1.05C41,.67,40.2,1.14,39.69,2.1L9.22,60.33a5.47,5.47,0,0,0,1.87-.68L53.82,35l8.33-15.9C62.65,18.12,62.65,17,62.15,16.64Z"/><path class="cls-5" d="M47.5,38.63,56.74,21,40.6,8.79,15.24,57.26Z"/><path class="cls-3" d="M40.15,42.87c.62-3.54,0-6.7-1.88-8.11-2.81-2.13-7.38.5-10.2,5.88a16.07,16.07,0,0,0-1.88,10.3Z"/><path class="cls-6" d="M63.33,51.41h0l-1.88-1.09h0a.66.66,0,0,0-.78,0l-7.51,4.34a2.26,2.26,0,0,0-.86,1l-2.66,6a1.83,1.83,0,0,0,0,1.81l2.66,3a.29.29,0,0,0,.12.1h0l2,1.18h0a.71.71,0,0,0,.69-.07l7.5-4.34a2.6,2.6,0,0,0,1.1-2.09v-9A.87.87,0,0,0,63.33,51.41Z"/><path class="cls-7" d="M55.16,67.73l7.5-4.34a2.6,2.6,0,0,0,1.1-2.09v-9c0-.81-.49-1.18-1.1-.83l-7.5,4.33a2.26,2.26,0,0,0-.86,1l-2.66,6a1.78,1.78,0,0,0,0,1.81l2.66,3a.65.65,0,0,0,.86.06Z"/><path class="cls-8" d="M60.19,57.26h0l-1-.55h0a1.8,1.8,0,0,0-1.82.15,6.69,6.69,0,0,0-2.79,5.33,2.44,2.44,0,0,0,1,2.26h0l1.06.6h0a1.78,1.78,0,0,0,1.82-.15,6.7,6.7,0,0,0,2.79-5.33,2.43,2.43,0,0,0-1-2.31Z"/><ellipse class="cls-9" cx="58.47" cy="61.23" rx="4.29" ry="2.42" transform="translate(-20.78 91.02) rotate(-66.92)"/><path class="cls-10" d="M56.32,34.94h0A2.15,2.15,0,0,0,54,34.85L11.09,59.65a5.67,5.67,0,0,1-5.69,0,1.86,1.86,0,0,1-.7-2.54,2,2,0,0,1,.7-.69l5.37-3.11,3-5.69L2.19,54.29a4.37,4.37,0,0,0-1.6,6,4.24,4.24,0,0,0,1.6,1.6,12,12,0,0,0,12,0l43.28-25a2.11,2.11,0,0,1,2.12,0Z"/><path class="cls-11" d="M30.81,12h0L26.66,9.71h0c-2.12-1.33-4.92-1.26-8,.51C12.06,14,6.72,24.25,6.72,33c0,4.64,1.49,8,3.87,9.5h0c.17.11.35.21.53.31L15,45h0c2.13,1.42,5,1.39,8.13-.42C29.7,40.76,35,30.54,35,21.75,35,16.87,33.4,13.46,30.81,12Z"/><ellipse class="cls-12" cx="23.11" cy="28.67" rx="18.33" ry="10.37" transform="translate(-12.32 38.69) rotate(-66.92)"/><path class="cls-13" d="M14,33.87c0,6.67,4.06,9.73,9,6.84s9.06-10.63,9.06-17.29-4.06-9.73-9.06-6.84S14,27.2,14,33.87Z"/><path class="cls-14" d="M27.72,15.6c1.38,1.32,2.22,3.6,2.22,6.63,0,6.66-4.05,14.41-9,17.29a6.5,6.5,0,0,1-4.62,1c1.66,1.59,4.11,1.79,6.83.21,5-2.88,9.06-10.63,9.06-17.29,0-4.42-1.78-7.25-4.44-7.82Z"/></g></g></g></svg>