<svg xmlns="http://www.w3.org/2000/svg" xmlns:xlink="http://www.w3.org/1999/xlink" viewBox="0 0 368.34 512"><defs><style>.cls-1{fill:url(#Безымянный_градиент);}.cls-2{fill:url(#Безымянный_градиент_2);}.cls-3{fill:#fff;}</style><linearGradient id="Безымянный_градиент" x1="91.05" y1="248.45" x2="118.5" y2="296" gradientTransform="matrix(1, 0, 0, -1, 0, 514)" gradientUnits="userSpaceOnUse"><stop offset="0" stop-color="#ab2c37"/><stop offset="1" stop-color="#ff7a85"/></linearGradient><linearGradient id="Безымянный_градиент_2" x1="195.55" y1="78.66" x2="195.55" y2="632.28" gradientTransform="matrix(1, 0, 0, -1, 0, 514)" gradientUnits="userSpaceOnUse"><stop offset="0" stop-color="#ff4757"/><stop offset="1" stop-color="#ff7a85"/></linearGradient></defs><title>number-card</title><g id="Слой_2" data-name="Слой 2"><g id="Capa_1" data-name="Capa 1"><path class="cls-1" d="M361.56,15,338.66,1.77c-3.83-2.51-9-2.44-14.59.81L21.51,177.26C9.63,184.12,0,202.52,0,218.36V480c0,9.36,3.36,15.73,8.56,18l20.72,12Z"/><path class="cls-2" d="M346.83,334.74,44.27,509.42c-11.88,6.86-21.51-.42-21.51-16.27V231.49c0-15.85,9.63-34.25,21.51-41.11L346.83,15.7c11.88-6.86,21.51.42,21.51,16.27V293.63C368.34,309.48,358.71,327.88,346.83,334.74Z"/><path class="cls-3" d="M335.62,114.82,55.48,276.56V234.35L335.62,72.61Z"/><path class="cls-3" d="M172.79,307.54,55.48,375.27V343.43L172.79,275.7Z"/><path class="cls-3" d="M172.79,365,55.48,432.68V400.84l117.31-67.73Z"/><path class="cls-3" d="M255.41,236.81c0,21.24-9.24,39.88-23.84,48.3s-23.84.47-23.84-20.78c0-21.08,9.25-39.71,23.84-48.14s23.84-.47,23.84,20.62ZM221.48,256.4c0,11.68,3.77,16.64,10.09,13s10.1-13,10.1-24.64-3.77-16.47-10.1-12.82S221.48,244.72,221.48,256.4Zm85.26-83.12L246.05,322l-20.31,11.72L286.43,185Zm18.49,69.11c0,21.25-9.24,39.89-23.84,48.31s-23.84.47-23.84-20.78c0-21.08,9.25-39.72,23.84-48.14s23.84-.47,23.84,20.61ZM291.3,262c0,11.67,3.77,16.63,10.09,13s10.1-13,10.1-24.64-3.77-16.47-10.1-12.82S291.3,250.31,291.3,262Z"/></g></g></svg>