<svg xmlns="http://www.w3.org/2000/svg" viewBox="0 0 512 512"><title>question</title><g id="Слой_2" data-name="Слой 2"><g id="Capa_1" data-name="Capa 1"><path d="M510,463.66l-35.15-102.3A250.14,250.14,0,1,0,250.37,500.75h.4a251.05,251.05,0,0,0,110.59-25.91L463.65,510a36.84,36.84,0,0,0,12,2A36.5,36.5,0,0,0,510,463.66Zm-30.17,16.16a5.85,5.85,0,0,1-6.3,1.46L365.12,444a15.14,15.14,0,0,0-12,.93,220.25,220.25,0,0,1-102.37,25.42C131.17,470.58,32.28,373.48,30.38,254A220,220,0,0,1,254,30.39c119.53,1.89,216.62,100.74,216.44,220.33A220.57,220.57,0,0,1,445,353.1a15.2,15.2,0,0,0-.94,12l37.25,108.39A5.84,5.84,0,0,1,479.82,479.82Z"/><path d="M247.91,362.75c-7.94,0-15.55,7-15.18,15.18s6.67,15.17,15.18,15.17c7.94,0,15.54-7,15.18-15.17S256.42,362.75,247.91,362.75Z"/><path d="M247.91,127.67a75.61,75.61,0,0,0-75.52,75.52,15.18,15.18,0,0,0,30.36,0,45.16,45.16,0,1,1,45.16,45.16,15.18,15.18,0,0,0-15.18,15.18v61.9a15.18,15.18,0,1,0,30.36,0V277.17a75.52,75.52,0,0,0-15.18-149.5Z"/></g></g></svg>