<svg xmlns="http://www.w3.org/2000/svg" xmlns:xlink="http://www.w3.org/1999/xlink" viewBox="0 0 329.92 512"><defs><style>.cls-1{fill:url(#Безымянный_градиент_2);}.cls-2{fill:url(#Безымянный_градиент_2-2);}.cls-3{fill:url(#Безымянный_градиент_9);}.cls-4{fill:url(#Безымянный_градиент_4);}.cls-5{fill:#fcf3b3;}.cls-6{fill:url(#Безымянный_градиент_9-2);}.cls-7{fill:url(#Безымянный_градиент_9-3);}.cls-8{fill:url(#Безымянный_градиент_9-4);}.cls-9{fill:url(#Безымянный_градиент_9-5);}.cls-10{fill:url(#Безымянный_градиент_9-6);}</style><linearGradient id="Безымянный_градиент_2" x1="134.88" y1="246.47" x2="40.4" y2="25.25" gradientTransform="matrix(1, 0, 0, -1, 0, 514)" gradientUnits="userSpaceOnUse"><stop offset="0" stop-color="#ab2c37"/><stop offset="1" stop-color="#ff4757"/></linearGradient><linearGradient id="Безымянный_градиент_2-2" x1="208.05" y1="276.46" x2="286.91" y2="168.91" xlink:href="#Безымянный_градиент_2"/><linearGradient id="Безымянный_градиент_9" x1="61.36" y1="361.37" x2="286.74" y2="361.37" gradientTransform="matrix(1, 0, 0, -1, 0, 514)" gradientUnits="userSpaceOnUse"><stop offset="0" stop-color="#ffa538"/><stop offset="1" stop-color="#ffc538"/></linearGradient><linearGradient id="Безымянный_градиент_4" x1="191.05" y1="201.67" x2="191.05" y2="461.31" gradientTransform="matrix(1, 0, 0, -1, 0, 514)" gradientUnits="userSpaceOnUse"><stop offset="0" stop-color="#ffc538"/><stop offset="1" stop-color="#f7e041"/></linearGradient><linearGradient id="Безымянный_градиент_9-2" x1="91.33" y1="318.01" x2="81.09" y2="279.6" xlink:href="#Безымянный_градиент_9"/><linearGradient id="Безымянный_градиент_9-3" x1="89.11" y1="351.14" x2="81.74" y2="323.5" xlink:href="#Безымянный_градиент_9"/><linearGradient id="Безымянный_градиент_9-4" x1="117.78" y1="441.82" x2="107.54" y2="403.41" xlink:href="#Безымянный_градиент_9"/><linearGradient id="Безымянный_градиент_9-5" x1="168.48" y1="503.79" x2="158.58" y2="466.66" xlink:href="#Безымянный_градиент_9"/><linearGradient id="Безымянный_градиент_9-6" x1="221.85" y1="513.38" x2="215.38" y2="489.11" xlink:href="#Безымянный_градиент_9"/></defs><title>reward</title><g id="Слой_2" data-name="Слой 2"><g id="Capa_1" data-name="Capa 1"><path class="cls-1" d="M88.19,512,61.51,453.49,0,491.08l102.53-283L190.73,229Z"/><path class="cls-2" d="M258.92,404.76l18.72-71L329.92,310,231.1,171.14,160.1,266Z"/><path class="cls-3" d="M286.74,65.88,252.74,46l-2.55-26.06L216.19,0l-32.7,18.88L157.05,8.52,130.6,49.41,97.91,68.29,87.8,115.58,61.36,156.47l10.1,35.62-10.1,47.29L87.8,249.73l10.11,35.62,34,19.91Z"/><path class="cls-4" d="M191.05,28.43,217.5,38.78l32.69-18.87L260.3,55.53l26.44,10.35-10.1,47.29,10.1,35.62L260.3,189.68,250.19,237,217.5,255.85l-26.45,40.89-26.44-10.35-32.7,18.87-10.1-35.62L95.36,259.29,105.46,212l-10.1-35.63,26.45-40.89,10.1-47.28,32.7-18.88Z"/><path class="cls-5" d="M191.05,75.89l18.52,39.34L251,99.35,221,155.6l7.07,50.91-37-4.58-37,47.35,7.08-59.08-30-21.65,41.41-31.93Z"/><path class="cls-6" d="M95.36,259.29l-34-19.91,10.1-47.29,34,19.91Z"/><path class="cls-7" d="M105.46,212l-34-19.91-10.1-35.62,34,19.9Z"/><path class="cls-8" d="M121.81,135.48l-34-19.9L97.91,68.29l34,19.91Z"/><path class="cls-9" d="M164.61,69.32l-34-19.9,26.45-40.9,34,19.91Z"/><path class="cls-10" d="M183.49,18.88l34,19.9,32.69-18.87L216.19,0Z"/></g></g></svg>