<svg xmlns="http://www.w3.org/2000/svg" xmlns:xlink="http://www.w3.org/1999/xlink" viewBox="0 0 382.72 512"><defs><style>.cls-1{fill:#43386b;}.cls-2{fill:url(#Безымянный_градиент_2);}.cls-3{fill:url(#Безымянный_градиент_2-2);}.cls-4{fill:#e9e5f6;}.cls-5{fill:#7662bd;}.cls-6{fill:url(#Безымянный_градиент_3);}.cls-7{fill:url(#Безымянный_градиент_4);}.cls-8{fill:#dea861;}.cls-9{fill:#cc8241;}</style><linearGradient id="Безымянный_градиент_2" x1="68.65" y1="86.26" x2="78.63" y2="103.54" gradientTransform="translate(149.73 514) rotate(180)" gradientUnits="userSpaceOnUse"><stop offset="0" stop-color="#43386b"/><stop offset="1" stop-color="#7662bd"/></linearGradient><linearGradient id="Безымянный_градиент_2-2" x1="63.53" y1="27.15" x2="63.53" y2="114.67" gradientTransform="matrix(1, 0, 0, -1, 0, 514)" xlink:href="#Безымянный_градиент_2"/><linearGradient id="Безымянный_градиент_3" x1="199.91" y1="141.77" x2="240.6" y2="141.77" gradientTransform="matrix(1, 0, 0, -1, 0, 514)" gradientUnits="userSpaceOnUse"><stop offset="0" stop-color="#cc8241"/><stop offset="1" stop-color="#dea861"/></linearGradient><linearGradient id="Безымянный_градиент_4" x1="152.11" y1="322.8" x2="304.51" y2="234.81" gradientTransform="matrix(1, 0, 0, -1, 0, 514)" gradientUnits="userSpaceOnUse"><stop offset="0" stop-color="#dea861"/><stop offset="1" stop-color="#ebcba0"/></linearGradient></defs><g id="Слой_2" data-name="Слой 2"><g id="Capa_1" data-name="Capa 1"><path class="cls-1" d="M44.48,128a17.17,17.17,0,0,1-8.59-2.3L8.6,109.9A17.2,17.2,0,0,1,25.8,80.11L53.09,95.87A17.2,17.2,0,0,1,44.48,128Z"/><path class="cls-1" d="M179.46,50a17.18,17.18,0,0,1-8.59-2.31L143.8,32.1A17.2,17.2,0,1,1,161,2.31l27.07,15.63A17.2,17.2,0,0,1,179.46,50Z"/><path class="cls-2" d="M47.37,408.2l23-13.25h0c4.2-2.22,9.6-1.9,15.49,1.49,13.39,7.74,24.25,28.49,24.25,46.35,0,9.82-3.28,16.71-8.47,19.65h0L79.56,475.19Z"/><path class="cls-3" d="M39.27,427.64c0-17.86,10.86-26.07,24.26-18.33s24.25,28.48,24.25,46.34S76.92,481.73,63.53,474,39.27,445.51,39.27,427.64Z"/><ellipse class="cls-4" cx="63.7" cy="441.52" rx="13.12" ry="23.19" transform="translate(-167.97 60.31) rotate(-23.08)"/><path class="cls-5" d="M55.83,437.21c0-5.67,3.45-8.27,7.7-5.82s7.69,9,7.69,14.7-3.45,8.27-7.69,5.82S55.83,442.87,55.83,437.21Z"/><path class="cls-5" d="M165.93,501.21a14,14,0,0,1-7-1.89L72.83,449.63a14.09,14.09,0,0,1-7-12.19V139.31L37.46,123A14.07,14.07,0,0,1,51.53,98.58L86.9,119a14.06,14.06,0,0,1,7,12.18V429.32L173,475a14.07,14.07,0,0,1-7,26.26Z"/><path class="cls-5" d="M301.13,423.41a14,14,0,0,1-7-1.89L208,371.83a14.07,14.07,0,0,1-7-12.19V61.51L172.44,45a14.07,14.07,0,1,1,14.07-24.37L222.1,41.19a14.08,14.08,0,0,1,7,12.19V351.51l79.05,45.64a14.07,14.07,0,0,1-7.05,26.26Z"/><path class="cls-5" d="M79.88,145.26a14.07,14.07,0,0,1-7-26.27L208,41.18a14.08,14.08,0,0,1,14,24.4L86.89,143.38a14.08,14.08,0,0,1-7,1.88Z"/><path class="cls-5" d="M79.88,227.34a14.07,14.07,0,0,1-7-26.26L208,123A14.07,14.07,0,1,1,222.1,147.4L86.9,225.46a14.06,14.06,0,0,1-7,1.88Z"/><path class="cls-6" d="M382.71,417.05V232.47L86.46,245.17V429.75a12.44,12.44,0,0,0,6.28,10.88L210.1,508.39a27,27,0,0,0,27,0l139.37-80.47A12.41,12.41,0,0,0,382.71,417.05Z"/><path class="cls-7" d="M92.74,234.3,232.1,153.84a27,27,0,0,1,27,0L376.44,221.6a12.55,12.55,0,0,1,0,21.74L237.07,323.81a27,27,0,0,1-27,0L92.74,256.05a12.56,12.56,0,0,1,0-21.75Z"/><path class="cls-8" d="M137.93,208.21l149.68,86.42,39.7-22.92L177.63,185.29Z"/><path class="cls-9" d="M161.66,194.5l149.68,86.42-7.78,4.49L153.88,199Z"/><path class="cls-9" d="M287.61,294.63v32.79l39.7-22.92V271.71Z"/></g></g></svg>