<svg xmlns="http://www.w3.org/2000/svg" viewBox="0 0 464 480"><title>video</title><g id="Слой_2" data-name="Слой 2"><g id="Glyph"><path d="M0,0V480H464V0ZM64,448H32V416H64Zm0-64H32V352H64Zm0-64H32V288H64Zm0-64H32V224H64Zm0-64H32V160H64Zm0-64H32V96H64Zm0-64H32V32H64ZM344,296a32,32,0,0,1-32,32H152a32,32,0,0,1-32-32V184a32,32,0,0,1,32-32H312a32,32,0,0,1,32,32Zm88,152H400V416h32Zm0-64H400V352h32Zm0-64H400V288h32Zm0-64H400V224h32Zm0-64H400V160h32Zm0-64H400V96h32Zm0-64H400V32h32Z"/><path d="M192,280V200l88,40Z"/></g></g></svg>